<?xml version="1.0" encoding="UTF-8"?>
<svg version="1.1" xmlns="http://www.w3.org/2000/svg" width="1800" height="1800">
<path d="M0 0 C594 0 1188 0 1800 0 C1800 594 1800 1188 1800 1800 C1206 1800 612 1800 0 1800 C0 1206 0 612 0 0 Z " fill="#FEFEFE" transform="translate(0,0)"/>
<path d="M0 0 C1.53834914 -0.00445668 1.53834914 -0.00445668 3.10777605 -0.0090034 C6.549103 -0.01768462 9.99039514 -0.01919818 13.43173218 -0.02069092 C15.8973498 -0.02531953 18.3629667 -0.03034425 20.82858276 -0.03573608 C27.53129217 -0.04885874 34.23398796 -0.0553418 40.93670702 -0.05974674 C45.12506645 -0.06251229 49.31342359 -0.06675026 53.50178146 -0.07125092 C65.10676491 -0.08344223 76.71174651 -0.09374132 88.31673622 -0.09712601 C89.43032909 -0.09745536 89.43032909 -0.09745536 90.56641879 -0.09779136 C91.6826233 -0.09811878 91.6826233 -0.09811878 92.8213774 -0.09845281 C94.32919097 -0.09889627 95.83700454 -0.09934283 97.34481812 -0.09979248 C98.09274012 -0.10001391 98.84066212 -0.10023534 99.61124842 -0.10046348 C111.72179775 -0.10440886 123.83228681 -0.12185556 135.94281287 -0.145152 C148.38785325 -0.16889788 160.83286342 -0.18132935 173.2779268 -0.18249393 C180.2607434 -0.18340895 187.24348149 -0.18911748 194.2262764 -0.20731354 C200.79754071 -0.22437726 207.36868271 -0.22594298 213.93997192 -0.21717453 C216.3477455 -0.21640486 218.75552712 -0.22073752 221.16328049 -0.23063278 C224.45896449 -0.24337949 227.75412377 -0.23746027 231.04980469 -0.22705078 C231.9948718 -0.23510719 232.93993892 -0.24316359 233.91364443 -0.25146413 C246.82080618 -0.15660244 260.70621479 4.36303747 270.25741577 13.33184814 C281.40521848 25.56273121 286.05617998 38.01397294 286.05302429 54.33465576 C286.05670098 55.35895958 286.06037767 56.38326341 286.06416577 57.43860674 C286.07517593 60.86982252 286.07904195 64.30100799 286.08285522 67.73223877 C286.08912193 70.19313655 286.09576892 72.65403339 286.10276794 75.1149292 C286.12197266 82.49854365 286.13259304 89.88215005 286.14149573 97.26578212 C286.14588598 100.74866623 286.15125088 104.23154884 286.1564846 107.71443176 C286.17349263 119.3022912 286.18798479 130.89014972 286.19523335 142.47801971 C286.19714303 145.48203025 286.19906339 148.48604077 286.20101929 151.49005127 C286.20150303 152.23662084 286.20198677 152.9831904 286.20248517 153.75238329 C286.21077808 165.83499591 286.23610439 177.91750929 286.26859996 190.00007862 C286.30173855 202.42369447 286.31968824 214.84726001 286.32287759 227.27092028 C286.32503643 234.23875621 286.33369281 241.20644744 286.35933876 248.17424011 C286.38342834 254.7340574 286.38682896 261.29366216 286.37657738 267.85353088 C286.37608332 270.2535997 286.382365 272.65368156 286.39613342 275.05371094 C286.48659022 291.76428107 285.92291834 306.01716477 275.90585327 320.14044189 C275.50495483 320.71278564 275.1040564 321.28512939 274.69100952 321.87481689 C266.97297063 331.95764211 254.20570146 338.12132354 241.90585327 340.14044189 C238.37992269 340.40525447 234.87212189 340.41525789 231.3374176 340.40113831 C229.79500026 340.40687663 229.79500026 340.40687663 228.22142297 340.41273087 C224.79480979 340.42300411 221.36836596 340.41907949 217.94174194 340.4151001 C215.47715602 340.41944973 213.01257146 340.42463372 210.54798889 340.43058777 C204.55938803 340.44257478 198.57085308 340.44513233 192.58224627 340.44278751 C187.71127732 340.44100052 182.84032195 340.44276212 177.96935463 340.44701195 C177.27464768 340.44760714 176.57994073 340.44820233 175.86418206 340.44881555 C174.45262064 340.45002737 173.04105922 340.45124151 171.6294978 340.45245793 C158.40675097 340.46332165 145.18402966 340.46117663 131.9612814 340.45507308 C119.88399018 340.44990615 107.80677968 340.46115553 95.72950443 340.4801713 C83.30805762 340.49957797 70.88664895 340.50780067 58.46518689 340.50404805 C51.49973062 340.50214014 44.53434301 340.50458332 37.56889915 340.51876259 C31.01644725 340.53196688 24.46412971 340.52937802 17.91166878 340.5163517 C15.51237813 340.51399061 13.11307607 340.51670377 10.71379852 340.52497482 C-8.42553503 340.58617567 -21.24004221 339.03943733 -37.34414673 327.89044189 C-48.05923288 317.17535575 -54.17106773 304.11581257 -54.23721433 288.95535558 C-54.23634784 287.99758626 -54.23548136 287.03981693 -54.23458862 286.05302429 C-54.23904531 284.5157335 -54.23904531 284.5157335 -54.24359202 282.94738632 C-54.25227327 279.50839334 -54.25378681 276.0694352 -54.25527954 272.63043213 C-54.25990818 270.16643703 -54.26493291 267.70244265 -54.27032471 265.2384491 C-54.28344778 258.53980465 -54.28993063 251.84117382 -54.29433537 245.14251971 C-54.2971011 240.9561626 -54.30133912 236.76980778 -54.30583954 232.58345222 C-54.3180314 220.98276 -54.32833007 209.38206961 -54.33171463 197.78137112 C-54.3319342 197.03922743 -54.33215376 196.29708375 -54.33237998 195.53245086 C-54.33259826 194.78856998 -54.33281654 194.0446891 -54.33304143 193.27826637 C-54.33348489 191.77098048 -54.33393145 190.26369458 -54.3343811 188.75640869 C-54.33460253 188.008749 -54.33482396 187.26108931 -54.3350521 186.49077327 C-54.33899658 174.387366 -54.35644025 162.28401907 -54.37974063 150.18063509 C-54.40349361 137.74123995 -54.41591832 125.30187503 -54.41708255 112.86245686 C-54.41799723 105.88352075 -54.4236969 98.90466321 -54.44190216 91.92574883 C-54.45897763 85.35694373 -54.46052632 78.78826095 -54.45176315 72.21943092 C-54.45099405 69.81368994 -54.4553187 67.40794088 -54.46522141 65.00222015 C-54.53588343 46.76014339 -54.05119429 30.03267333 -40.89883423 15.82403564 C-29.04549038 4.76604604 -15.96153177 -0.01442993 0 0 Z " fill="#FEFEFE" transform="translate(199.09414672851563,729.8595581054688)"/>
<path d="M0 0 C1.53834914 -0.00445668 1.53834914 -0.00445668 3.10777605 -0.0090034 C6.549103 -0.01768462 9.99039514 -0.01919818 13.43173218 -0.02069092 C15.8973498 -0.02531953 18.3629667 -0.03034425 20.82858276 -0.03573608 C27.53129217 -0.04885874 34.23398796 -0.0553418 40.93670702 -0.05974674 C45.12506645 -0.06251229 49.31342359 -0.06675026 53.50178146 -0.07125092 C65.10676491 -0.08344223 76.71174651 -0.09374132 88.31673622 -0.09712601 C89.43032909 -0.09745536 89.43032909 -0.09745536 90.56641879 -0.09779136 C91.6826233 -0.09811878 91.6826233 -0.09811878 92.8213774 -0.09845281 C94.32919097 -0.09889627 95.83700454 -0.09934283 97.34481812 -0.09979248 C98.09274012 -0.10001391 98.84066212 -0.10023534 99.61124842 -0.10046348 C111.72179775 -0.10440886 123.83228681 -0.12185556 135.94281287 -0.145152 C148.38785325 -0.16889788 160.83286342 -0.18132935 173.2779268 -0.18249393 C180.2607434 -0.18340895 187.24348149 -0.18911748 194.2262764 -0.20731354 C200.79754071 -0.22437726 207.36868271 -0.22594298 213.93997192 -0.21717453 C216.3477455 -0.21640486 218.75552712 -0.22073752 221.16328049 -0.23063278 C224.45896449 -0.24337949 227.75412377 -0.23746027 231.04980469 -0.22705078 C231.9948718 -0.23510719 232.93993892 -0.24316359 233.91364443 -0.25146413 C246.82080618 -0.15660244 260.70621479 4.36303747 270.25741577 13.33184814 C281.40521848 25.56273121 286.05617998 38.01397294 286.05302429 54.33465576 C286.05670098 55.35895958 286.06037767 56.38326341 286.06416577 57.43860674 C286.07517593 60.86982252 286.07904195 64.30100799 286.08285522 67.73223877 C286.08912193 70.19313655 286.09576892 72.65403339 286.10276794 75.1149292 C286.12197266 82.49854365 286.13259304 89.88215005 286.14149573 97.26578212 C286.14588598 100.74866623 286.15125088 104.23154884 286.1564846 107.71443176 C286.17349263 119.3022912 286.18798479 130.89014972 286.19523335 142.47801971 C286.19714303 145.48203025 286.19906339 148.48604077 286.20101929 151.49005127 C286.20150303 152.23662084 286.20198677 152.9831904 286.20248517 153.75238329 C286.21077808 165.83499591 286.23610439 177.91750929 286.26859996 190.00007862 C286.30173855 202.42369447 286.31968824 214.84726001 286.32287759 227.27092028 C286.32503643 234.23875621 286.33369281 241.20644744 286.35933876 248.17424011 C286.38342834 254.7340574 286.38682896 261.29366216 286.37657738 267.85353088 C286.37608332 270.2535997 286.382365 272.65368156 286.39613342 275.05371094 C286.48659022 291.76428107 285.92291834 306.01716477 275.90585327 320.14044189 C275.50495483 320.71278564 275.1040564 321.28512939 274.69100952 321.87481689 C266.97297063 331.95764211 254.20570146 338.12132354 241.90585327 340.14044189 C238.37992269 340.40525447 234.87212189 340.41525789 231.3374176 340.40113831 C229.79500026 340.40687663 229.79500026 340.40687663 228.22142297 340.41273087 C224.79480979 340.42300411 221.36836596 340.41907949 217.94174194 340.4151001 C215.47715602 340.41944973 213.01257146 340.42463372 210.54798889 340.43058777 C204.55938803 340.44257478 198.57085308 340.44513233 192.58224627 340.44278751 C187.71127732 340.44100052 182.84032195 340.44276212 177.96935463 340.44701195 C177.27464768 340.44760714 176.57994073 340.44820233 175.86418206 340.44881555 C174.45262064 340.45002737 173.04105922 340.45124151 171.6294978 340.45245793 C158.40675097 340.46332165 145.18402966 340.46117663 131.9612814 340.45507308 C119.88399018 340.44990615 107.80677968 340.46115553 95.72950443 340.4801713 C83.30805762 340.49957797 70.88664895 340.50780067 58.46518689 340.50404805 C51.49973062 340.50214014 44.53434301 340.50458332 37.56889915 340.51876259 C31.01644725 340.53196688 24.46412971 340.52937802 17.91166878 340.5163517 C15.51237813 340.51399061 13.11307607 340.51670377 10.71379852 340.52497482 C-8.42553503 340.58617567 -21.24004221 339.03943733 -37.34414673 327.89044189 C-48.05923288 317.17535575 -54.17106773 304.11581257 -54.23721433 288.95535558 C-54.23634784 287.99758626 -54.23548136 287.03981693 -54.23458862 286.05302429 C-54.23904531 284.5157335 -54.23904531 284.5157335 -54.24359202 282.94738632 C-54.25227327 279.50839334 -54.25378681 276.0694352 -54.25527954 272.63043213 C-54.25990818 270.16643703 -54.26493291 267.70244265 -54.27032471 265.2384491 C-54.28344778 258.53980465 -54.28993063 251.84117382 -54.29433537 245.14251971 C-54.2971011 240.9561626 -54.30133912 236.76980778 -54.30583954 232.58345222 C-54.3180314 220.98276 -54.32833007 209.38206961 -54.33171463 197.78137112 C-54.3319342 197.03922743 -54.33215376 196.29708375 -54.33237998 195.53245086 C-54.33259826 194.78856998 -54.33281654 194.0446891 -54.33304143 193.27826637 C-54.33348489 191.77098048 -54.33393145 190.26369458 -54.3343811 188.75640869 C-54.33460253 188.008749 -54.33482396 187.26108931 -54.3350521 186.49077327 C-54.33899658 174.387366 -54.35644025 162.28401907 -54.37974063 150.18063509 C-54.40349361 137.74123995 -54.41591832 125.30187503 -54.41708255 112.86245686 C-54.41799723 105.88352075 -54.4236969 98.90466321 -54.44190216 91.92574883 C-54.45897763 85.35694373 -54.46052632 78.78826095 -54.45176315 72.21943092 C-54.45099405 69.81368994 -54.4553187 67.40794088 -54.46522141 65.00222015 C-54.53588343 46.76014339 -54.05119429 30.03267333 -40.89883423 15.82403564 C-29.04549038 4.76604604 -15.96153177 -0.01442993 0 0 Z M-36.15664673 24.89044189 C-40.79132678 31.29298959 -44.20988974 37.60867694 -44.22836781 45.6339817 C-44.23282565 46.53449497 -44.23728349 47.43500823 -44.24187642 48.36280978 C-44.24169206 49.34820187 -44.2415077 50.33359397 -44.24131775 51.34884644 C-44.24499444 52.39876499 -44.24867113 53.44868354 -44.25245923 54.5304178 C-44.26350115 58.06009871 -44.26734079 61.58975019 -44.27114868 65.1194458 C-44.27741295 67.64565118 -44.28405971 70.17185564 -44.2910614 72.69805908 C-44.31029122 80.28716007 -44.32089006 87.87625588 -44.32978919 95.46537501 C-44.33417491 99.04142535 -44.33954099 102.61747422 -44.34477806 106.19352341 C-44.36178892 118.08498388 -44.37628228 129.97644343 -44.3835268 141.8679142 C-44.38543662 144.95273464 -44.38735696 148.03755508 -44.38931274 151.12237549 C-44.38979648 151.88906899 -44.39028022 152.65576249 -44.39077862 153.44568913 C-44.39907594 165.86092267 -44.42440842 178.27605978 -44.45689342 190.69125123 C-44.48999088 203.44474804 -44.507978 216.19819588 -44.51117104 228.95173585 C-44.51333369 236.10950285 -44.52204621 243.26712921 -44.54763222 250.42485428 C-44.57165351 257.16030733 -44.57514808 263.89546393 -44.56487083 270.63096619 C-44.56437524 273.10044063 -44.5707025 275.5699275 -44.58442688 278.03936386 C-44.60214331 281.41658998 -44.59503985 284.79290832 -44.58189392 288.1701355 C-44.59286317 289.14214327 -44.60383241 290.11415103 -44.61513406 291.11561358 C-44.51839183 301.44453152 -40.75171282 310.11517322 -33.71914673 317.70294189 C-32.85289673 318.50731689 -31.98664673 319.31169189 -31.09414673 320.14044189 C-30.24852173 320.96544189 -29.40289673 321.79044189 -28.53164673 322.64044189 C-16.48447922 332.07355212 -2.88100744 330.85328524 11.65365601 330.78741455 C14.16632723 330.79419685 16.67899349 330.80310341 19.19165039 330.81396484 C25.28656889 330.83433698 31.38108359 330.8314388 37.47600704 330.81690164 C42.43368204 330.80557057 47.39127089 330.80409513 52.34895515 330.80952072 C53.410788 330.81066997 53.410788 330.81066997 54.49407201 330.81184243 C55.93252812 330.8134412 57.3709842 330.81506227 58.80944026 330.81670539 C72.27216604 330.83093526 85.7347211 330.81461425 99.19741888 330.78770356 C110.72572271 330.76537209 122.2537747 330.76924414 133.78207397 330.79229736 C147.19785055 330.81911277 160.61347775 330.82955714 174.02927738 330.81423604 C175.46249677 330.81264345 176.89571619 330.81107159 178.32893562 330.80952072 C179.03394285 330.80874934 179.73895008 330.80797797 180.46532116 330.80718321 C185.41118203 330.80288302 190.35694743 330.81011639 195.3027935 330.82191849 C201.97198569 330.8374844 208.6406321 330.82625106 215.30980301 330.7974472 C217.75059411 330.79086248 220.19142537 330.79268897 222.63220024 330.80376053 C238.34877345 330.86845342 252.87099512 330.76125676 264.90585327 319.14044189 C277.30104623 306.00743983 276.61996453 291.19298497 276.52108765 274.22149658 C276.52459212 271.69086333 276.53025437 269.16023228 276.53790283 266.62960815 C276.55063808 260.49223219 276.54026371 254.35527581 276.51878959 248.21793601 C276.49467938 241.0625425 276.49649997 233.90722365 276.4990955 226.75179854 C276.50277826 213.98284 276.48202143 201.21403759 276.44784546 188.44512939 C276.414731 176.06813617 276.40059273 163.69130665 276.40682983 151.31427002 C276.41359922 137.81468995 276.41112018 124.31517825 276.39147043 110.81560826 C276.39043095 110.1013534 276.38939146 109.38709854 276.38832048 108.65119959 C276.38622968 107.21688693 276.38411871 105.7825743 276.3819873 104.3482617 C276.37510411 99.36551778 276.37442028 94.38279498 276.37586975 89.4000473 C276.37746261 82.69239514 276.36252361 75.98496591 276.33664322 69.27735519 C276.32948435 66.81672742 276.32739644 64.35607885 276.33076096 61.89544296 C276.33447868 58.53555248 276.3197173 55.17623112 276.30026245 51.81640625 C276.30825434 50.35784151 276.30825434 50.35784151 276.31640768 48.86981082 C276.21316486 38.52751583 272.40242351 30.09819883 265.46835327 22.45294189 C264.62272827 21.68981689 263.77710327 20.92669189 262.90585327 20.14044189 C262.06022827 19.31544189 261.21460327 18.49044189 260.34335327 17.64044189 C248.26072945 8.18252925 234.56814471 9.41549194 219.99032593 9.46173096 C217.45957056 9.45167107 214.92882277 9.4395204 212.39808655 9.42544556 C206.25873762 9.39743555 200.1197707 9.39285594 193.98037411 9.40045872 C188.98599483 9.40630356 183.99169883 9.40306106 178.9973259 9.39348602 C178.28417534 9.39214241 177.57102477 9.3907988 176.83626359 9.38941447 C175.38709922 9.386671 173.93793487 9.38391852 172.48877053 9.38115713 C158.92492688 9.35660149 145.36124191 9.36412986 131.79739706 9.38172719 C119.41434594 9.3968248 107.0317399 9.372633 94.64876564 9.32969478 C81.9039938 9.28584085 69.15943027 9.26807951 56.41458356 9.27847075 C49.27126179 9.28385895 42.12829723 9.27928045 34.98503494 9.24750519 C28.26563847 9.21795311 21.54724441 9.22543326 14.8278141 9.25722122 C12.36969659 9.26325378 9.91151578 9.25749055 7.4534626 9.23871231 C-9.41668468 9.11948593 -25.17829828 10.08954872 -36.15664673 24.89044189 Z " fill="#141414" transform="translate(199.09414672851563,729.8595581054688)"/>
<path d="M0 0 C8.49229444 6.09229819 13.16050889 15.1272629 15.125 25.25 C15.3056869 27.91318849 15.40931981 30.46922053 15.3996582 33.12792969 C15.40476913 33.87060089 15.40988007 34.61327209 15.41514587 35.37844849 C15.42893307 37.80967495 15.42809288 40.24061432 15.42578125 42.671875 C15.42967512 44.38047386 15.43401121 46.08907177 15.43876648 47.79766846 C15.44620609 51.37165468 15.44595458 54.9455421 15.44067383 58.51953125 C15.43489274 63.0695494 15.45178819 67.61915868 15.4750185 72.16910934 C15.48984953 75.69702466 15.49061471 79.22484375 15.48750877 82.75278473 C15.48801764 84.42869117 15.49317244 86.10460364 15.50332069 87.78047943 C15.58052435 102.31563725 14.71567448 115.11561194 4.2734375 126.21875 C-4.94346246 134.88483921 -16.80232151 137.84760002 -29.28125 137.4921875 C-40.95849617 136.40184222 -51.14853099 132.09892491 -58.8125 123 C-66.38026558 111.86268365 -66.46054627 101.10076326 -66.37109375 88.1171875 C-66.37124903 86.27116845 -66.37274281 84.42514907 -66.37550354 82.57913208 C-66.37688123 78.7278994 -66.36443331 74.87704199 -66.34155273 71.02587891 C-66.31313 66.10905064 -66.31592483 61.19284305 -66.32864285 56.27596855 C-66.33562216 52.47021249 -66.32778574 48.66459799 -66.31538582 44.85886002 C-66.31089602 43.0465156 -66.31051271 41.23415585 -66.31445122 39.42181015 C-66.33087296 25.22272438 -65.04567116 14.15866726 -55.05859375 3.26953125 C-40.40853787 -10.61102675 -16.51685978 -10.02515868 0 0 Z " fill="#6B6B6B" transform="translate(790.875,742.75)"/>
<path d="M0 0 C5.94446802 4.54198531 9.50756244 11.54810376 10.9921875 18.81640625 C11.09779896 20.73823922 11.15062923 22.66324748 11.16918945 24.58789062 C11.18844231 26.33120667 11.18844231 26.33120667 11.20808411 28.10974121 C11.21547104 29.36387817 11.22285797 30.61801514 11.23046875 31.91015625 C11.2385405 33.20779907 11.24661224 34.50544189 11.25492859 35.84240723 C11.26993634 38.59285346 11.27978071 41.34327411 11.28735352 44.09375 C11.29835572 47.58578937 11.33268956 51.07718053 11.37252522 54.56899261 C11.40527019 57.93268502 11.40949505 61.29631699 11.41796875 64.66015625 C11.43547684 65.89809937 11.45298492 67.13604248 11.47102356 68.41149902 C11.44882633 77.42089894 10.27836385 86.72208052 4.8671875 94.25390625 C-1.79127429 100.1886222 -9.63041593 103.20401644 -18.5 103.1015625 C-25.50666822 102.30485412 -30.5837805 99.15563185 -36.0078125 94.81640625 C-36.0078125 109.00640625 -36.0078125 123.19640625 -36.0078125 137.81640625 C-45.2478125 137.81640625 -54.4878125 137.81640625 -64.0078125 137.81640625 C-64.0078125 91.61640625 -64.0078125 45.41640625 -64.0078125 -2.18359375 C-55.0978125 -2.18359375 -46.1878125 -2.18359375 -37.0078125 -2.18359375 C-36.3478125 -0.53359375 -35.6878125 1.11640625 -35.0078125 2.81640625 C-33.9765625 2.03265625 -32.9453125 1.24890625 -31.8828125 0.44140625 C-22.34420564 -6.27940857 -10.00228361 -5.89628781 0 0 Z " fill="#6A6A6A" transform="translate(1151.0078125,777.18359375)"/>
<path d="M0 0 C1.11568359 -0.00128906 2.23136719 -0.00257813 3.38085938 -0.00390625 C5.14333008 0.00189453 5.14333008 0.00189453 6.94140625 0.0078125 C8.11251953 0.00394531 9.28363281 0.00007812 10.49023438 -0.00390625 C12.16569336 -0.00197266 12.16569336 -0.00197266 13.875 0 C14.9055249 0.00112793 15.9360498 0.00225586 16.99780273 0.00341797 C19.50390625 0.1328125 19.50390625 0.1328125 21.50390625 1.1328125 C21.50390625 19.9428125 21.50390625 38.7528125 21.50390625 58.1328125 C28.76390625 58.1328125 36.02390625 58.1328125 43.50390625 58.1328125 C43.50390625 39.3228125 43.50390625 20.5128125 43.50390625 1.1328125 C46.15218804 -0.1913284 48.17070737 0.00324208 51.1328125 0 C52.24978516 -0.00128906 53.36675781 -0.00257813 54.51757812 -0.00390625 C55.68869141 -0.00003906 56.85980469 0.00382813 58.06640625 0.0078125 C59.24138672 0.00394531 60.41636719 0.00007812 61.62695312 -0.00390625 C62.74263672 -0.00261719 63.85832031 -0.00132812 65.0078125 0 C66.03720947 0.00112793 67.06660645 0.00225586 68.12719727 0.00341797 C70.50390625 0.1328125 70.50390625 0.1328125 71.50390625 1.1328125 C71.60247945 2.92744018 71.63022737 4.72598275 71.63088989 6.52331543 C71.63511963 8.27756081 71.63511963 8.27756081 71.63943481 10.06724548 C71.63639847 12.00912498 71.63639847 12.00912498 71.63330078 13.99023438 C71.6346548 15.35820055 71.63643474 16.72616636 71.63861084 18.09413147 C71.64318506 21.81923624 71.64139566 25.54431344 71.63823175 29.26941872 C71.63570809 33.15939028 71.63804571 37.04935941 71.63961792 40.93933105 C71.6414396 47.47306748 71.63903335 54.00679263 71.63427734 60.54052734 C71.62883473 68.10508933 71.63059738 75.66962436 71.63610375 83.2341857 C71.64063493 89.71739734 71.6412854 96.20060085 71.63866508 102.68381357 C71.63710233 106.56101835 71.63690847 110.43821045 71.64020157 114.31541443 C71.64308036 117.95968837 71.64110445 121.60392741 71.63530731 125.24819756 C71.63334413 127.23159105 71.63633356 129.21498748 71.63943481 131.19837952 C71.63661499 132.36787643 71.63379517 133.53737335 71.63088989 134.74230957 C71.63032435 136.27652935 71.63032435 136.27652935 71.62974739 137.84174347 C71.50390625 140.1328125 71.50390625 140.1328125 70.50390625 141.1328125 C68.58932343 141.23253036 66.67108308 141.26361839 64.75390625 141.265625 C63.58859375 141.26691406 62.42328125 141.26820313 61.22265625 141.26953125 C59.99546875 141.26566406 58.76828125 141.26179687 57.50390625 141.2578125 C56.27671875 141.26167969 55.04953125 141.26554688 53.78515625 141.26953125 C52.0371875 141.26759766 52.0371875 141.26759766 50.25390625 141.265625 C49.17625 141.26449707 48.09859375 141.26336914 46.98828125 141.26220703 C44.50390625 141.1328125 44.50390625 141.1328125 43.50390625 140.1328125 C43.41020001 138.35289326 43.38646354 136.56924511 43.39038086 134.78686523 C43.39045639 133.6457579 43.39053192 132.50465057 43.39060974 131.32896423 C43.39577103 130.0873201 43.40093231 128.84567596 43.40625 127.56640625 C43.40766495 126.30264664 43.4090799 125.03888702 43.41053772 123.73683167 C43.41520043 120.37156361 43.42419145 117.0063626 43.4352417 113.64111328 C43.44545779 110.2093158 43.45003576 106.77751141 43.45507812 103.34570312 C43.46613245 96.60805186 43.48340988 89.87044139 43.50390625 83.1328125 C36.24390625 83.1328125 28.98390625 83.1328125 21.50390625 83.1328125 C21.51176147 85.7150061 21.51176147 85.7150061 21.51977539 88.34936523 C21.53587407 94.02511627 21.54737901 99.70086402 21.55571842 105.37663174 C21.56094607 108.81921598 21.56804156 112.26177562 21.5793457 115.7043457 C21.5922486 119.65836293 21.59713543 123.61237006 21.6015625 127.56640625 C21.60672379 128.80805038 21.61188507 130.04969452 21.61720276 131.32896423 C21.61731606 133.04062523 21.61731606 133.04062523 21.61743164 134.78686523 C21.61965225 135.7972435 21.62187286 136.80762177 21.62416077 137.84861755 C21.50390625 140.1328125 21.50390625 140.1328125 20.50390625 141.1328125 C18.58932343 141.23253036 16.67108308 141.26361839 14.75390625 141.265625 C13.58859375 141.26691406 12.42328125 141.26820313 11.22265625 141.26953125 C9.99546875 141.26566406 8.76828125 141.26179687 7.50390625 141.2578125 C6.27671875 141.26167969 5.04953125 141.26554688 3.78515625 141.26953125 C2.61984375 141.26824219 1.45453125 141.26695312 0.25390625 141.265625 C-0.82375 141.26449707 -1.90140625 141.26336914 -3.01171875 141.26220703 C-5.49609375 141.1328125 -5.49609375 141.1328125 -6.49609375 140.1328125 C-6.59466695 138.33818482 -6.62241487 136.53964225 -6.62307739 134.74230957 C-6.62589722 133.57281265 -6.62871704 132.40331573 -6.63162231 131.19837952 C-6.62959808 129.90379318 -6.62757385 128.60920685 -6.62548828 127.27539062 C-6.6268423 125.90742445 -6.62862224 124.53945864 -6.63079834 123.17149353 C-6.63537256 119.44638876 -6.63358316 115.72131156 -6.63041925 111.99620628 C-6.62789559 108.10623472 -6.63023321 104.21626559 -6.63180542 100.32629395 C-6.6336271 93.79255752 -6.63122085 87.25883237 -6.62646484 80.72509766 C-6.62102223 73.16053567 -6.62278488 65.59600064 -6.62829125 58.0314393 C-6.63282243 51.54822766 -6.6334729 45.06502415 -6.63085258 38.58181143 C-6.62928983 34.70460665 -6.62909597 30.82741455 -6.63238907 26.95021057 C-6.63526786 23.30593663 -6.63329195 19.66169759 -6.62749481 16.01742744 C-6.62553163 14.03403395 -6.62852106 12.05063752 -6.63162231 10.06724548 C-6.62880249 8.89774857 -6.62598267 7.72825165 -6.62307739 6.52331543 C-6.62270037 5.50050224 -6.62232334 4.47768906 -6.62193489 3.42388153 C-6.3797966 -0.98449821 -3.83148591 0.00419823 0 0 Z " fill="#6A6A6A" transform="translate(868.49609375,736.8671875)"/>
<path d="M0 0 C8.56607354 6.1976393 14.14204483 14.08385479 16.484375 24.45703125 C16.8242774 28.81831412 16.89088474 33.09871376 16.484375 37.45703125 C13.80259349 40.13881276 6.1131176 38.9524333 2.484375 39.08203125 C1.2571875 39.13359375 0.03 39.18515625 -1.234375 39.23828125 C-2.98234375 39.30402344 -2.98234375 39.30402344 -4.765625 39.37109375 C-5.84328125 39.41186035 -6.9209375 39.45262695 -8.03125 39.49462891 C-10.515625 39.45703125 -10.515625 39.45703125 -11.515625 38.45703125 C-11.64803642 36.72979783 -11.74639352 34.99990347 -11.828125 33.26953125 C-12.24066688 28.30613673 -13.10245998 25.26027227 -16.515625 21.45703125 C-19.93113011 18.86595841 -23.34887964 18.95414819 -27.515625 19.45703125 C-30.39541076 21.07048265 -32.95560647 22.98982451 -34.1696167 26.17044067 C-34.65482751 29.37694889 -34.67149277 32.55746768 -34.67675781 35.79248047 C-34.68172272 36.52469818 -34.68668762 37.25691589 -34.69180298 38.01132202 C-34.70638073 40.42813057 -34.71321888 42.8448735 -34.71875 45.26171875 C-34.72450459 46.94556682 -34.73026229 48.62941489 -34.73602295 50.31326294 C-34.74652012 53.84214584 -34.75237134 57.37100604 -34.75585938 60.89990234 C-34.7613447 65.41472793 -34.78537884 69.92925204 -34.81383133 74.44398308 C-34.83248229 77.92189402 -34.83766459 81.39973264 -34.83919525 84.87768936 C-34.84221621 86.54181697 -34.85022595 88.20594347 -34.86338043 89.87002182 C-34.88049448 92.2011772 -34.87854807 94.53159972 -34.87207031 96.86279297 C-34.8812851 97.54559326 -34.89049988 98.22839355 -34.8999939 98.93188477 C-34.86046921 103.4878022 -33.93722626 106.60282159 -31.515625 110.45703125 C-28.40576293 112.53027263 -27.62454113 112.73095311 -24.078125 112.70703125 C-23.31628906 112.7121875 -22.55445313 112.71734375 -21.76953125 112.72265625 C-19.23380044 112.42381796 -17.65933216 111.83710024 -15.515625 110.45703125 C-13.18545808 106.31451228 -12.34917252 102.92987036 -11.93359375 98.20703125 C-11.85262451 97.315 -11.77165527 96.42296875 -11.68823242 95.50390625 C-11.60279175 94.49070312 -11.60279175 94.49070312 -11.515625 93.45703125 C-7.22401453 93.39919283 -2.93250355 93.36349005 1.359375 93.33203125 C2.58269531 93.31527344 3.80601562 93.29851562 5.06640625 93.28125 C6.23300781 93.27480469 7.39960937 93.26835938 8.6015625 93.26171875 C9.68034668 93.25124512 10.75913086 93.24077148 11.87060547 93.22998047 C14.484375 93.45703125 14.484375 93.45703125 16.484375 95.45703125 C17.37815329 106.53988203 14.74173849 116.91895656 7.484375 125.45703125 C2.51720807 130.73857583 -2.69330087 134.05412417 -9.515625 136.45703125 C-10.15113281 136.68261719 -10.78664063 136.90820312 -11.44140625 137.140625 C-22.25719775 140.38760175 -34.41565576 138.92249243 -44.46875 134.015625 C-54.36370072 128.18949965 -59.48523682 121.29437499 -62.69949341 110.34729004 C-64.28008102 102.81309466 -64.06623379 95.23394617 -64.01171875 87.56640625 C-64.01187412 85.76808616 -64.01336936 83.96976574 -64.01612854 82.17144775 C-64.0175038 78.42632002 -64.00509722 74.68157934 -63.98217773 70.93652344 C-63.95371313 66.15650984 -63.95656453 61.37713403 -63.96926785 56.5970726 C-63.97624682 52.8925438 -63.96841184 49.18816043 -63.95601082 45.48365021 C-63.95152366 43.7215455 -63.95113535 41.95942504 -63.95507622 40.19731903 C-63.97089561 26.91105405 -63.03841481 15.46280173 -53.5078125 5.3203125 C-39.45589801 -7.92373931 -16.60724576 -10.18612123 0 0 Z " fill="#6B6B6B" transform="translate(610.515625,741.54296875)"/>
<path d="M0 0 C7.03986748 6.68787411 10.75856364 13.19991243 11.04489136 22.91682434 C11.07421149 26.13370067 11.05431948 29.34699179 10.99731445 32.56347656 C10.95274091 35.08028077 10.93579363 37.59612882 10.92382812 40.11328125 C10.91042242 41.70964936 10.89550457 43.30600565 10.87890625 44.90234375 C10.87151932 45.65640503 10.86413239 46.41046631 10.85652161 47.18737793 C10.75903929 52.44017946 10.75903929 52.44017946 9.640625 53.55859375 C8.19772713 53.6515519 6.75032715 53.67605888 5.30444336 53.67211914 C4.3835643 53.67204361 3.46268524 53.67196808 2.51390076 53.67189026 C1.51286819 53.66672897 0.51183563 53.66156769 -0.51953125 53.65625 C-1.53913437 53.65483505 -2.55873749 53.6534201 -3.60923767 53.65196228 C-6.88014607 53.64634472 -10.15098713 53.63378925 -13.421875 53.62109375 C-15.63346256 53.61608101 -17.84505118 53.61151771 -20.05664062 53.60742188 C-25.49090857 53.59636959 -30.92513697 53.57961438 -36.359375 53.55859375 C-36.29902568 55.78850102 -36.2101475 58.01764735 -36.109375 60.24609375 C-36.06296875 61.48746094 -36.0165625 62.72882813 -35.96875 64.0078125 C-35.28276165 68.00501387 -34.19633294 69.71596989 -31.359375 72.55859375 C-28.61099607 73.42283009 -26.15847247 73.18061541 -23.359375 72.55859375 C-19.9227621 70.11678984 -18.73392703 67.4707803 -17.359375 63.55859375 C-17.029375 63.22859375 -16.699375 62.89859375 -16.359375 62.55859375 C-14.42842326 62.61270791 -12.49944705 62.74032696 -10.57421875 62.8984375 C-9.40439453 62.99189453 -8.23457031 63.08535156 -7.02929688 63.18164062 C-5.79759766 63.28541016 -4.56589844 63.38917969 -3.296875 63.49609375 C-1.44352539 63.64594727 -1.44352539 63.64594727 0.44726562 63.79882812 C3.51213889 64.04733136 6.57652091 64.30080639 9.640625 64.55859375 C9.98754803 73.50025503 8.52689613 80.85375764 2.65625 87.9609375 C-6.63648046 96.80880321 -17.43183384 98.90138745 -29.9140625 98.7734375 C-40.71864892 98.09968211 -50.72755806 94.7387381 -58.234375 86.74609375 C-65.3430073 78.00839988 -65.52189065 67.9676036 -65.59765625 57.1328125 C-65.605728 56.03064896 -65.61379974 54.92848541 -65.62211609 53.79292297 C-65.63591522 51.46556147 -65.64665593 49.13818007 -65.65454102 46.81079102 C-65.66607118 44.43963661 -65.68653912 42.06850837 -65.71606445 39.69750977 C-65.75885038 36.25909915 -65.77492429 32.82145666 -65.78515625 29.3828125 C-65.80266434 28.33252365 -65.82017242 27.2822348 -65.83821106 26.20011902 C-65.80915869 16.25955835 -62.42836924 7.68762192 -55.359375 0.55859375 C-39.51183591 -10.9137018 -15.74601609 -13.26502616 0 0 Z " fill="#6B6B6B" transform="translate(1020.359375,781.44140625)"/>
<path d="M0 0 C5.78522509 5.27098286 10.15822129 12.96592577 11.20358276 20.77984619 C11.29290396 22.84126463 11.29814356 24.88233409 11.26171875 26.9453125 C11.25984558 27.68628677 11.25797241 28.42726105 11.25604248 29.19068909 C11.24937614 30.73939591 11.2355714 32.28808747 11.21484375 33.83666992 C11.1833527 36.21744261 11.17383259 38.59755414 11.16796875 40.97851562 C11.15881067 42.48828941 11.14843874 43.99805643 11.13671875 45.5078125 C11.13246887 46.22126328 11.12821899 46.93471405 11.12384033 47.66978455 C11.05085039 52.64446211 11.05085039 52.64446211 9.93359375 53.76171875 C8.46005027 53.85475893 6.98208784 53.8791814 5.50561523 53.87524414 C4.56471542 53.87516861 3.62381561 53.87509308 2.65440369 53.87501526 C1.63149734 53.86985397 0.608591 53.86469269 -0.4453125 53.859375 C-1.48711166 53.85796005 -2.52891083 53.8565451 -3.60227966 53.85508728 C-6.94451719 53.84946955 -10.28668882 53.83691405 -13.62890625 53.82421875 C-15.88867091 53.81920603 -18.14843662 53.81464273 -20.40820312 53.81054688 C-25.96096016 53.79949436 -31.5136785 53.78273899 -37.06640625 53.76171875 C-36.97880036 55.82498852 -36.87061352 57.88739035 -36.75390625 59.94921875 C-36.69589844 61.09777344 -36.63789062 62.24632812 -36.578125 63.4296875 C-36.03876376 66.94171147 -35.16693395 68.92470973 -33.06640625 71.76171875 C-30.00947303 73.29018536 -27.43656078 72.9941432 -24.06640625 72.76171875 C-20.78162224 71.16371572 -20.19333689 70.11963623 -18.9609375 66.64453125 C-18.66574219 65.69320312 -18.37054687 64.741875 -18.06640625 63.76171875 C-13.77475363 63.73279926 -9.48312589 63.71494757 -5.19140625 63.69921875 C-3.35642578 63.68665039 -3.35642578 63.68665039 -1.484375 63.67382812 C-0.31777344 63.67060547 0.84882812 63.66738281 2.05078125 63.6640625 C3.66895752 63.65620728 3.66895752 63.65620728 5.31982422 63.64819336 C7.93359375 63.76171875 7.93359375 63.76171875 9.93359375 64.76171875 C10.66913248 73.03652943 7.68676964 81.68842012 2.515625 88.203125 C-5.81828867 96.41357328 -17.3337227 98.74337906 -28.69140625 99.13671875 C-39.67769566 98.7645764 -48.55038986 95.52555109 -56.81640625 88.38671875 C-64.17458111 79.80218141 -65.37592925 71.43221783 -65.3671875 60.4609375 C-65.37147263 59.26998978 -65.37575775 58.07904205 -65.38017273 56.852005 C-65.38590655 54.33632034 -65.38642329 51.82061909 -65.38208008 49.30493164 C-65.37892597 45.47317924 -65.40237221 41.64220359 -65.42773438 37.81054688 C-65.43000816 35.36067805 -65.4307105 32.91080716 -65.4296875 30.4609375 C-65.43889725 29.32315353 -65.44810699 28.18536957 -65.45759583 27.0131073 C-65.39450027 16.06197394 -63.22919196 8.97451744 -55.59765625 0.99609375 C-40.51754112 -12.3153659 -15.86684615 -11.55805123 0 0 Z " fill="#6B6B6B" transform="translate(1240.06640625,781.23828125)"/>
<path d="M0 0 C21.44033164 18.23981836 36.69487081 43.97781358 39.0859375 72.44921875 C40.841951 105.77166537 31.09728826 134.33889223 8.93359375 159.15625 C0.08471903 168.40087046 -14.59251227 180.8130962 -27.75 182.5625 C-30.75 175.9375 -30.75 175.9375 -30.75 172.5625 C-29.78320312 172.0778125 -28.81640625 171.593125 -27.8203125 171.09375 C-19.72727359 166.95814147 -12.62796183 162.56998894 -5.75 156.5625 C-5.07839844 156.03398438 -4.40679687 155.50546875 -3.71484375 154.9609375 C7.59676767 145.83069051 14.35990326 133.57893099 20.25 120.5625 C20.67152344 119.66789063 21.09304688 118.77328125 21.52734375 117.8515625 C30.62739603 97.1789909 29.6455524 71.57826649 22.25 50.5625 C20.02557394 44.97873663 17.2655921 39.75295561 14.25 34.5625 C13.69441406 33.56992187 13.13882813 32.57734375 12.56640625 31.5546875 C-0.47526406 9.59964539 -23.16959474 -4.64837443 -47.53125 -11.18359375 C-64.02889276 -14.39886015 -82.95536128 -14.31926221 -98.75 -8.4375 C-100.60238281 -7.80134766 -100.60238281 -7.80134766 -102.4921875 -7.15234375 C-126.63741999 1.48969268 -145.47394025 19.69283271 -156.75 42.5625 C-167.67313264 67.36768982 -167.55337149 94.1301456 -158.375 119.4375 C-154.41601949 129.11769016 -149.49739387 137.57692457 -142.75 145.5625 C-142.09386719 146.36429688 -141.43773437 147.16609375 -140.76171875 147.9921875 C-131.17037045 159.24930927 -120.09191166 166.52163445 -106.75 172.5625 C-107.41241789 176.11329859 -108.32481771 179.23707466 -109.75 182.5625 C-114.87919648 182.05979162 -118.62751979 180.23733298 -122.9375 177.5625 C-123.59387451 177.16023193 -124.25024902 176.75796387 -124.92651367 176.34350586 C-146.11684509 163.08179327 -160.09565502 145.24638195 -169.75 122.5625 C-170.17152344 121.62019531 -170.59304687 120.67789063 -171.02734375 119.70703125 C-180.74810147 96.04707378 -179.05799955 67.33367331 -170 43.875 C-157.537363 14.42069752 -134.99216662 -6.68413097 -105.6328125 -18.71484375 C-69.09874297 -31.83344595 -30.00000186 -23.90041642 0 0 Z " fill="#050505" transform="translate(383.75,816.4375)"/>
<path d="M0 0 C1.01974411 -0.00525696 1.01974411 -0.00525696 2.06008911 -0.01062012 C4.31229801 -0.01943875 6.56419403 -0.01358799 8.81640625 -0.00683594 C10.37817444 -0.00818255 11.93994223 -0.01012306 13.50170898 -0.01263428 C16.77689602 -0.01558571 20.05197406 -0.01128733 23.32714844 -0.00195312 C27.53074316 0.00944149 31.7340825 0.00288211 35.93766785 -0.00909805 C39.16322767 -0.01631617 42.3887267 -0.01402896 45.61428833 -0.00884247 C47.16447988 -0.00750583 48.7146769 -0.00915418 50.26486206 -0.01380157 C52.42932818 -0.01886609 54.59337752 -0.01115804 56.7578125 0 C58.60741577 0.00238678 58.60741577 0.00238678 60.49438477 0.00482178 C63.37890625 0.25878906 63.37890625 0.25878906 65.37890625 2.25878906 C65.60595703 4.50537109 65.60595703 4.50537109 65.57421875 7.26660156 C65.56777344 8.25273438 65.56132813 9.23886719 65.5546875 10.25488281 C65.52955078 11.80369141 65.52955078 11.80369141 65.50390625 13.38378906 C65.49488281 14.4240625 65.48585938 15.46433594 65.4765625 16.53613281 C65.45294372 19.11057999 65.42000774 21.68457118 65.37890625 24.25878906 C63.07070117 25.4128916 61.77106349 25.37981876 59.20458984 25.37231445 C57.91347794 25.37220116 57.91347794 25.37220116 56.59628296 25.37208557 C55.20090805 25.36434364 55.20090805 25.36434364 53.77734375 25.35644531 C52.82574371 25.35503036 51.87414368 25.35361542 50.89370728 25.35215759 C47.84707528 25.34654918 44.80051612 25.33399526 41.75390625 25.32128906 C39.69140731 25.31627515 37.62890722 25.31171205 35.56640625 25.30761719 C30.50385544 25.29742687 25.44146262 25.27785308 20.37890625 25.25878906 C20.37890625 36.14878906 20.37890625 47.03878906 20.37890625 58.25878906 C28.51649049 58.17967677 28.51649049 58.17967677 36.65380859 58.07861328 C37.6639502 58.07361816 38.6740918 58.06862305 39.71484375 58.06347656 C40.7517334 58.05300293 41.78862305 58.0425293 42.85693359 58.03173828 C45.37890625 58.25878906 45.37890625 58.25878906 47.37890625 60.25878906 C47.62182617 62.48950195 47.62182617 62.48950195 47.609375 65.23144531 C47.60744141 66.21306641 47.60550781 67.1946875 47.60351562 68.20605469 C47.58514648 69.7480957 47.58514648 69.7480957 47.56640625 71.32128906 C47.56576172 72.35318359 47.56511719 73.38507813 47.56445312 74.44824219 C47.51906622 82.11862909 47.51906622 82.11862909 46.37890625 83.25878906 C44.45223118 83.34627114 42.52238764 83.3657624 40.59375 83.35644531 C38.83901367 83.35161133 38.83901367 83.35161133 37.04882812 83.34667969 C35.81712891 83.33830078 34.58542969 83.32992187 33.31640625 83.32128906 C31.46305664 83.31452148 31.46305664 83.31452148 29.57226562 83.30761719 C26.50776508 83.29578514 23.44335904 83.27930079 20.37890625 83.25878906 C20.38112686 83.97066879 20.38334747 84.68254852 20.38563538 85.41600037 C20.40563878 92.11153141 20.42088063 98.80705417 20.43071842 105.5026083 C20.43594607 108.94519254 20.44304156 112.38775218 20.4543457 115.83032227 C20.4672486 119.78433949 20.47213543 123.73834662 20.4765625 127.69238281 C20.48172379 128.93402695 20.48688507 130.17567108 20.49220276 131.4549408 C20.49231606 133.16660179 20.49231606 133.16660179 20.49243164 134.9128418 C20.49465225 135.92322006 20.49687286 136.93359833 20.49916077 137.97459412 C20.37890625 140.25878906 20.37890625 140.25878906 19.37890625 141.25878906 C17.39133597 141.35861964 15.40023105 141.38959659 13.41015625 141.39160156 C12.19972656 141.39289063 10.98929688 141.39417969 9.7421875 141.39550781 C8.46730469 141.39164063 7.19242188 141.38777344 5.87890625 141.38378906 C3.96658203 141.38958984 3.96658203 141.38958984 2.015625 141.39550781 C0.19998047 141.39357422 0.19998047 141.39357422 -1.65234375 141.39160156 C-2.77189453 141.39047363 -3.89144531 141.3893457 -5.04492188 141.38818359 C-7.62109375 141.25878906 -7.62109375 141.25878906 -8.62109375 140.25878906 C-8.72182325 138.4791435 -8.75186099 136.69547067 -8.75480652 134.91297913 C-8.7590715 133.75334152 -8.76333649 132.59370392 -8.76773071 131.39892578 C-8.76727753 130.11526123 -8.76682434 128.83159668 -8.76635742 127.5090332 C-8.76934738 126.15254117 -8.77274952 124.79604999 -8.77653503 123.43955994 C-8.78539592 119.74538328 -8.78771402 116.05122976 -8.78835082 112.3570435 C-8.78929821 109.27785763 -8.79297453 106.19867721 -8.79652292 103.11949342 C-8.80467542 95.85741015 -8.80710643 88.59533928 -8.80639648 81.33325195 C-8.80579548 73.83117315 -8.81634991 66.3291662 -8.83214015 58.82710558 C-8.84519672 52.39568144 -8.85058118 45.96428083 -8.84994107 39.53284353 C-8.84968553 35.68744379 -8.85256765 31.84210786 -8.86311913 27.99672127 C-8.87276853 24.38114395 -8.87290117 20.76569186 -8.86560249 17.15011024 C-8.86405067 15.18479434 -8.8724254 13.21947853 -8.88104248 11.25418091 C-8.87684799 10.09172348 -8.8726535 8.92926605 -8.86833191 7.73158264 C-8.86887668 6.71706559 -8.86942144 5.70254854 -8.86998272 4.65728855 C-8.30780499 -0.76031994 -4.50754719 0.00581666 0 0 Z " fill="#6D6D6D" transform="translate(650.62109375,736.7412109375)"/>
<path d="M0 0 C1.11246094 -0.00257813 2.22492188 -0.00515625 3.37109375 -0.0078125 C4.53769531 -0.00007812 5.70429687 0.00765625 6.90625 0.015625 C8.07285156 0.00789062 9.23945312 0.00015625 10.44140625 -0.0078125 C11.55386719 -0.00523437 12.66632813 -0.00265625 13.8125 0 C14.83666016 0.00225586 15.86082031 0.00451172 16.91601562 0.00683594 C19.40625 0.265625 19.40625 0.265625 21.40625 2.265625 C21.65513897 4.66412449 21.65513897 4.66412449 21.65348816 7.73841858 C21.65768265 8.90087601 21.66187714 10.06333344 21.66619873 11.26101685 C21.65776947 13.18347733 21.65776947 13.18347733 21.64916992 15.14477539 C21.65024241 16.50303743 21.6521806 17.86129902 21.65492249 19.21955872 C21.65977882 22.91364948 21.65210573 26.60761986 21.64196944 30.30169606 C21.63320324 34.16096316 21.6349461 38.02022632 21.6353302 41.87950134 C21.634393 48.3601992 21.625701 54.84085029 21.61206055 61.3215332 C21.59632782 68.82420277 21.59106264 76.32682111 21.5917961 83.82950598 C21.59240553 91.03551387 21.58730833 98.241505 21.57900429 105.44750786 C21.57546525 108.51966927 21.57364016 111.59182476 21.57311058 114.66398811 C21.57210922 118.27791291 21.56602966 121.89179437 21.55594444 125.50570488 C21.55160952 127.47238598 21.55219264 129.43907596 21.55288696 131.40576172 C21.54862198 132.56539932 21.54435699 133.72503693 21.53996277 134.91981506 C21.53828692 135.93395509 21.53661108 136.94809511 21.53488445 137.99296665 C21.40625 140.265625 21.40625 140.265625 20.40625 141.265625 C18.41867972 141.36545558 16.4275748 141.39643253 14.4375 141.3984375 C13.22707031 141.39972656 12.01664063 141.40101563 10.76953125 141.40234375 C9.49464844 141.39847656 8.21976563 141.39460937 6.90625 141.390625 C4.99392578 141.39642578 4.99392578 141.39642578 3.04296875 141.40234375 C1.22732422 141.40041016 1.22732422 141.40041016 -0.625 141.3984375 C-1.74455078 141.39730957 -2.86410156 141.39618164 -4.01757812 141.39501953 C-6.59375 141.265625 -6.59375 141.265625 -7.59375 140.265625 C-7.6944795 138.48597943 -7.72451724 136.70230661 -7.72746277 134.91981506 C-7.73172775 133.76017746 -7.73599274 132.60053986 -7.74038696 131.40576172 C-7.73993378 130.12209717 -7.73948059 128.83843262 -7.73901367 127.51586914 C-7.74200363 126.1593771 -7.74540577 124.80288592 -7.74919128 123.44639587 C-7.75805217 119.75221922 -7.76037027 116.0580657 -7.76100707 112.36387944 C-7.76195446 109.28469357 -7.76563078 106.20551315 -7.76917917 103.12632936 C-7.77733167 95.86424609 -7.77976268 88.60217522 -7.77905273 81.34008789 C-7.77845173 73.83800908 -7.78900616 66.33600213 -7.8047964 58.83394152 C-7.81785297 52.40251738 -7.82323743 45.97111677 -7.82259732 39.53967947 C-7.82234178 35.69427973 -7.8252239 31.8489438 -7.83577538 28.00355721 C-7.84542478 24.38797989 -7.84555742 20.7725278 -7.83825874 17.15694618 C-7.83670692 15.19163028 -7.84508165 13.22631447 -7.85369873 11.26101685 C-7.84950424 10.09855942 -7.84530975 8.93610199 -7.84098816 7.73841858 C-7.84153293 6.72390153 -7.84207769 5.70938448 -7.84263897 4.66412449 C-7.32306978 -0.34287292 -4.26409137 0.00939227 0 0 Z " fill="#6D6D6D" transform="translate(1050.59375,736.734375)"/>
<path d="M0 0 C1.56427734 -0.00773438 1.56427734 -0.00773438 3.16015625 -0.015625 C5.9375 0.25 5.9375 0.25 8.9375 2.25 C9.43012105 8.38039528 8.46669671 14.21390038 7.4375 20.25 C7.29441406 21.12011719 7.15132812 21.99023438 7.00390625 22.88671875 C6.65411973 25.00875695 6.2966135 27.12952028 5.9375 29.25 C2.98783398 30.04126084 0.615854 30.28570284 -2.4375 30.125 C-6.74395698 30.10378593 -9.48042545 30.66757416 -13.0625 33.25 C-18.19885432 39.80086618 -17.64974725 46.65334193 -17.63671875 54.6796875 C-17.64917633 56.07978046 -17.663514 57.47985784 -17.67964172 58.87991333 C-17.71750679 62.54556554 -17.73283027 66.21094798 -17.74243164 69.87677002 C-17.76225265 75.76472907 -17.81890769 81.65248446 -17.87119484 87.54022598 C-17.88656889 89.59713787 -17.89373445 91.65394772 -17.89933777 93.71090698 C-17.90637222 94.94954498 -17.91340668 96.18818298 -17.9206543 97.46435547 C-17.92587349 99.10813675 -17.92587349 99.10813675 -17.93119812 100.78512573 C-18.0625 103.25 -18.0625 103.25 -19.0625 104.25 C-20.97708282 104.34971786 -22.89532317 104.38080589 -24.8125 104.3828125 C-25.9778125 104.38410156 -27.143125 104.38539063 -28.34375 104.38671875 C-29.5709375 104.38285156 -30.798125 104.37898437 -32.0625 104.375 C-33.90328125 104.38080078 -33.90328125 104.38080078 -35.78125 104.38671875 C-36.9465625 104.38542969 -38.111875 104.38414062 -39.3125 104.3828125 C-40.39015625 104.38168457 -41.4678125 104.38055664 -42.578125 104.37939453 C-45.0625 104.25 -45.0625 104.25 -46.0625 103.25 C-46.15786242 100.08387337 -46.18800636 96.93959372 -46.17602539 93.77319336 C-46.17624443 92.28067802 -46.17624443 92.28067802 -46.1764679 90.75801086 C-46.17576831 87.45193338 -46.16797379 84.14591146 -46.16015625 80.83984375 C-46.15829223 78.55440807 -46.15686825 76.26897199 -46.15586853 73.98353577 C-46.15204207 67.95501613 -46.1422107 61.92652041 -46.13116455 55.89801025 C-46.12095317 49.75167159 -46.1163715 43.60532907 -46.11132812 37.45898438 C-46.10058854 25.38931238 -46.0835106 13.31965818 -46.0625 1.25 C-41.58334672 1.22113662 -37.10421709 1.20324813 -32.625 1.1875 C-31.34560547 1.17912109 -30.06621094 1.17074219 -28.74804688 1.16210938 C-26.92563477 1.15727539 -26.92563477 1.15727539 -25.06640625 1.15234375 C-23.94049072 1.14710693 -22.8145752 1.14187012 -21.65454102 1.13647461 C-19.0625 1.25 -19.0625 1.25 -18.0625 2.25 C-17.60790142 4.90463121 -17.36006762 7.57189138 -17.0625 10.25 C-16.60359375 9.69570313 -16.1446875 9.14140625 -15.671875 8.5703125 C-15.05828125 7.84585938 -14.4446875 7.12140625 -13.8125 6.375 C-13.20921875 5.65570312 -12.6059375 4.93640625 -11.984375 4.1953125 C-8.24259693 0.40790299 -5.25435563 -0.02604389 0 0 Z " fill="#6A6A6A" transform="translate(1310.0625,773.75)"/>
<path d="M0 0 C15.2104617 11.99144638 25.2108157 26.47638707 28.10546875 45.90625 C28.22897147 47.23793148 28.33202654 48.57161806 28.41796875 49.90625 C28.48242188 50.69 28.546875 51.47375 28.61328125 52.28125 C29.337493 68.50359314 22.89541248 84.3188501 12.5546875 96.58984375 C7.06285319 102.54351422 0.82602727 108.42010481 -6.58203125 111.90625 C-7.57203125 111.90625 -8.56203125 111.90625 -9.58203125 111.90625 C-12.62874532 105.56908474 -12.62874532 105.56908474 -12.4375 102.85546875 C-11.27276155 100.201567 -9.80186421 99.444925 -7.33203125 97.96875 C-3.57689737 95.5958376 -0.57698859 93.22498651 2.41796875 89.90625 C2.89878906 89.40609375 3.37960937 88.9059375 3.875 88.390625 C11.04247704 80.62434609 15.59903059 70.45938493 16.41796875 59.90625 C16.4953125 58.91753906 16.57265625 57.92882812 16.65234375 56.91015625 C17.22512828 42.89284593 13.38941298 30.72416598 4.41796875 19.90625 C3.93457031 19.26300781 3.45117188 18.61976563 2.953125 17.95703125 C-5.08058761 7.69791349 -18.07618716 2.47535095 -30.73974609 0.58398438 C-46.86079968 -0.91988776 -60.97657707 4.47379277 -73.26953125 14.59375 C-83.06954943 23.64792608 -88.94837091 36.15006576 -89.80859375 49.39453125 C-90.16664316 65.32773006 -86.06686024 79.96154873 -74.94921875 91.79296875 C-70.54731408 95.72272193 -65.6049609 98.83389137 -60.58203125 101.90625 C-61.18848147 105.85090818 -61.9672924 109.24617527 -63.58203125 112.90625 C-79.50268456 105.83040409 -91.00308989 92.8359961 -97.83203125 76.96875 C-103.64296088 61.35187663 -103.59330415 43.33343108 -96.75244141 28.05322266 C-87.87695334 9.86448533 -73.38856715 -2.13735897 -54.6484375 -9.19921875 C-36.33498697 -14.60943368 -15.57096742 -11.00831185 0 0 Z " fill="#060606" transform="translate(351.58203125,846.09375)"/>
<path d="M0 0 C3.63 0 7.26 0 11 0 C11.26216309 1.23564697 11.52432617 2.47129395 11.79443359 3.74438477 C12.77227908 8.35005347 13.75334098 12.95503219 14.73535156 17.55981445 C15.1590746 19.54888682 15.58193746 21.53814263 16.00390625 23.52758789 C16.61229353 26.39518689 17.22382113 29.26210125 17.8359375 32.12890625 C18.02247894 33.01147598 18.20902039 33.89404572 18.4012146 34.80335999 C18.58125031 35.64370285 18.76128601 36.48404572 18.94677734 37.34985352 C19.10222015 38.08043472 19.25766296 38.81101593 19.41781616 39.56373596 C20.17575804 42.73549449 21.10411726 45.8644104 22 49 C25.3 32.83 28.6 16.66 32 0 C35.3 0 38.6 0 42 0 C44.49842655 9.58883653 46.5922921 19.24246963 48.625 28.9375 C48.93990573 30.43038041 49.25500883 31.92321921 49.5703125 33.41601562 C51.95641052 44.72855131 51.95641052 44.72855131 53 50 C53.19110352 49.05382812 53.38220703 48.10765625 53.57910156 47.1328125 C54.30606133 43.53863689 55.03788359 39.94546426 55.77099609 36.35253906 C56.08444662 34.81308479 56.39667016 33.27338005 56.70751953 31.73339844 C58.85960887 21.07742208 61.27230633 10.52366441 64 0 C67.3 0 70.6 0 74 0 C72.72274226 9.06505948 71.01910981 17.9604269 68.99609375 26.88671875 C68.71274673 28.15095169 68.42939972 29.41518463 68.13746643 30.71772766 C67.54431871 33.36281441 66.94826006 36.00722117 66.34985352 38.65112305 C65.58285407 42.04050368 64.82218303 45.43126736 64.06347561 48.82251263 C63.3354838 52.07371373 62.6031989 55.32394133 61.87109375 58.57421875 C61.46170815 60.40058113 61.46170815 60.40058113 61.04405212 62.26383972 C60.79031326 63.38293228 60.5365744 64.50202484 60.27514648 65.6550293 C60.0524559 66.64174118 59.82976532 67.62845306 59.60032654 68.64506531 C59 71 59 71 58 73 C54.7 73 51.4 73 48 73 C47.80889648 72.1248877 47.61779297 71.24977539 47.42089844 70.34814453 C46.69052564 67.00433791 45.95985549 63.66059652 45.22900391 60.31689453 C44.91671599 58.88788286 44.60453627 57.45884753 44.29248047 56.02978516 C41.8869547 45.01418978 39.45207235 34.00532604 37 23 C35.89566662 28.35244831 34.79303391 33.70524329 33.69189453 39.05834961 C33.31799928 40.87484931 32.9436602 42.69125771 32.56884766 44.50756836 C30.61265249 53.98859427 28.67000534 63.46339054 27 73 C23.7 73 20.4 73 17 73 C14.14109514 62.52429789 11.524857 52.01256169 9.0625 41.4375 C8.7142861 39.94854586 8.36597773 38.45961382 8.01757812 36.97070312 C7.00736383 32.6481431 6.00273805 28.32429968 5 24 C4.71882324 22.78844238 4.43764648 21.57688477 4.14794922 20.32861328 C3.42832641 17.21989703 2.71271779 14.11030573 2 11 C1.68881226 9.64926392 1.68881226 9.64926392 1.37133789 8.27124023 C0 2.23771298 0 2.23771298 0 0 Z " fill="#6E6E6E" transform="translate(1395,960)"/>
<path d="M0 0 C5.12994698 3.11736344 9.32945926 7.16250499 11.27734375 12.921875 C12.2159532 19.61784777 12.20098303 26.25916805 8.6875 32.203125 C5.36002384 36.25877461 1.24185938 39.26703646 -3.72265625 40.921875 C-4.05265625 69.631875 -4.38265625 98.341875 -4.72265625 127.921875 C-8.02265625 127.921875 -11.32265625 127.921875 -14.72265625 127.921875 C-15.05265625 99.211875 -15.38265625 70.501875 -15.72265625 40.921875 C-18.36265625 39.601875 -21.00265625 38.281875 -23.72265625 36.921875 C-25.78125 34.88671875 -25.78125 34.88671875 -27.16015625 32.859375 C-27.86978516 31.85197266 -27.86978516 31.85197266 -28.59375 30.82421875 C-31.81824931 25.3905469 -31.33645466 19.01653219 -30.72265625 12.921875 C-28.8192313 7.16517516 -24.55312703 3.10391401 -19.4453125 0 C-13.18326012 -2.47966493 -6.26205238 -2.47966493 0 0 Z " fill="#020202" transform="translate(324.72265625,880.078125)"/>
<path d="M0 0 C3.30593764 2.60254665 5.48121515 5.09342017 7 9 C7.26069641 12.28793335 7.26069641 12.28793335 7.2746582 16.24365234 C7.2823246 17.32734856 7.2823246 17.32734856 7.29014587 18.43293762 C7.30402706 20.81735558 7.30308605 23.20148397 7.30078125 25.5859375 C7.3046694 27.2473664 7.30900431 28.90879432 7.31376648 30.57022095 C7.32122581 34.05205507 7.3209398 37.5337878 7.31567383 41.015625 C7.30988385 45.46994617 7.32679998 49.92385091 7.3500185 54.37810326 C7.36477684 57.80970676 7.36562462 61.2412105 7.36250877 64.67284012 C7.36302107 66.31463062 7.36824164 67.95642685 7.37832069 69.59818649 C7.39070688 71.89824929 7.38388067 74.19750792 7.37231445 76.49755859 C7.37294388 77.80453705 7.3735733 79.1115155 7.3742218 80.45809937 C6.8528641 85.39259852 5.16599473 88.6573394 1.9375 92.375 C-2.35003911 94.74683015 -6.2099225 94.91389637 -11 94 C-14.86657481 91.18062253 -16.56191882 88.49184782 -18 84 C-18.19557835 81.47969972 -18.29386881 79.06993049 -18.29052734 76.55102539 C-18.29724457 75.81866165 -18.30396179 75.08629791 -18.31088257 74.33174133 C-18.32981902 71.92030989 -18.33378428 69.50915733 -18.3359375 67.09765625 C-18.34236761 65.41523628 -18.34909613 63.73281742 -18.35610962 62.05039978 C-18.36807087 58.52746996 -18.37179155 55.00463814 -18.37060547 51.48168945 C-18.37040215 46.97461201 -18.39772248 42.4681642 -18.43214989 37.961236 C-18.45441961 34.48759593 -18.45844302 31.01410751 -18.45738602 27.54040337 C-18.45974116 25.87906153 -18.46855989 24.21771545 -18.48405075 22.55644417 C-18.5037165 20.22997381 -18.49787197 17.90486286 -18.48583984 15.57836914 C-18.49707886 14.89713989 -18.50831787 14.21591064 -18.51989746 13.51403809 C-18.4552982 8.58188835 -17.03990922 5.82081808 -14 2 C-9.7093717 -1.80027078 -5.27701207 -1.58023047 0 0 Z " fill="#FBFBFB" transform="translate(771,761)"/>
<path d="M0 0 C6.12364076 4.31438326 8.47893504 9.62847677 9.75 16.9375 C10.03278677 20.06873918 10.08403886 23.16972731 10.0625 26.3125 C10.05621582 27.56377686 10.05621582 27.56377686 10.04980469 28.84033203 C9.91301457 36.30121432 8.85293744 42.4075693 5 48.875 C0.21303366 53.26305247 -4.84230089 54.45037006 -11.16015625 54.234375 C-14.07645147 53.82009755 -16.0054831 52.81999805 -18.25 50.9375 C-18.25 50.2775 -18.25 49.6175 -18.25 48.9375 C-18.91 48.9375 -19.57 48.9375 -20.25 48.9375 C-20.25 56.8575 -20.25 64.7775 -20.25 72.9375 C-23.55 72.9375 -26.85 72.9375 -30.25 72.9375 C-30.25 48.8475 -30.25 24.7575 -30.25 -0.0625 C-26.95 -0.0625 -23.65 -0.0625 -20.25 -0.0625 C-20.25 1.2575 -20.25 2.5775 -20.25 3.9375 C-19.486875 3.298125 -18.72375 2.65875 -17.9375 2 C-12.56303685 -2.124588 -6.27468573 -2.05133957 0 0 Z " fill="#6F6F6F" transform="translate(1205.25,980.0625)"/>
<path d="M0 0 C3.3 0 6.6 0 10 0 C10 24.09 10 48.18 10 73 C6.7 73 3.4 73 0 73 C-0.33 71.68 -0.66 70.36 -1 69 C-1.598125 69.639375 -2.19625 70.27875 -2.8125 70.9375 C-6.40669573 74.32631312 -9.94007641 74.35005973 -14.65234375 74.2734375 C-18.4476525 73.83138823 -21.14385336 72.52144196 -24 70 C-29.18259086 62.71635879 -30.37637339 54.88974411 -30.3125 46.125 C-30.30831055 45.33778564 -30.30412109 44.55057129 -30.29980469 43.73950195 C-30.15812614 36.42873795 -29.06607376 30.34846436 -25.1875 24.0625 C-21.29972352 20.39688218 -17.81199924 18.83033779 -12.5 18.625 C-8.13772272 18.76500552 -4.18896705 19.81103295 -1 23 C-0.67 15.41 -0.34 7.82 0 0 Z " fill="#6E6E6E" transform="translate(1355,960)"/>
<path d="M0 0 C32.52631579 0 32.52631579 0 38.75 5.375 C43.94099754 11.43116379 44.53744745 15.65816256 44.34765625 23.546875 C43.72908156 29.69092028 41.63997801 33.77064633 37.0625 37.875 C31.03480263 42.05748389 26.3210991 42.26224299 19.1875 42.125 C16.155625 42.08375 13.12375 42.0425 10 42 C10 52.23 10 62.46 10 73 C6.7 73 3.4 73 0 73 C0 48.91 0 24.82 0 0 Z " fill="#6E6E6E" transform="translate(547,960)"/>
<path d="M0 0 C3.78457727 1.49954948 6.84075404 3.44830134 10 6 C11.3921875 4.7934375 11.3921875 4.7934375 12.8125 3.5625 C16.82295505 0.08677229 20.48381747 -0.35747858 25.65234375 -0.2734375 C29.50317395 0.1750785 32.05393413 1.53896667 35 4 C39.1380418 9.7494997 39.54967249 14.1221283 39.390625 21.08984375 C39.38496521 22.03436905 39.37930542 22.97889435 39.37347412 23.95204163 C39.35121071 26.94772556 39.30103331 29.94218195 39.25 32.9375 C39.22992202 34.97719618 39.21167353 37.01691124 39.1953125 39.05664062 C39.15137883 44.03822826 39.0824212 49.01890652 39 54 C35.7 54 32.4 54 29 54 C28.970271 52.25928223 28.970271 52.25928223 28.93994141 50.48339844 C28.86382088 46.17442266 28.77511334 41.86578172 28.68261719 37.55712891 C28.6443541 35.69293838 28.60949654 33.8286747 28.578125 31.96435547 C28.53241644 29.28326284 28.47443178 26.60267267 28.4140625 23.921875 C28.40251129 23.08944275 28.39096008 22.2570105 28.37905884 21.39935303 C28.32147174 15.88974919 28.32147174 15.88974919 26 11 C22.86599115 9.43299558 19.36844905 9.14835439 16 10 C12.96823376 12.8544472 11.74780145 15.06911486 11.45410156 19.14770508 C11.41308015 20.77126683 11.39303703 22.39545315 11.390625 24.01953125 C11.37408875 24.87810226 11.35755249 25.73667328 11.34051514 26.6212616 C11.29209967 29.35174763 11.27067894 32.081677 11.25 34.8125 C11.22183486 36.6686477 11.19190666 38.52476954 11.16015625 40.38085938 C11.08634262 44.92052707 11.03672872 49.45988693 11 54 C7.7 54 4.4 54 1 54 C0.9906543 52.80922852 0.98130859 51.61845703 0.97167969 50.39160156 C0.93178613 45.97064908 0.86602927 41.55039297 0.79248047 37.12988281 C0.76426714 35.21721344 0.74305439 33.3044274 0.72900391 31.39160156 C0.70757919 28.64066827 0.6609326 25.89113825 0.609375 23.140625 C0.60814636 22.28631897 0.60691772 21.43201294 0.60565186 20.55181885 C0.51111263 16.71375795 0.45950522 14.64153145 -1.81933594 11.45996094 C-5.03374455 9.30790502 -7.22405974 9.46057996 -11 10 C-13.46068824 11.64743794 -14.78893381 12.94749671 -15.38269043 15.9083252 C-15.56063599 18.3262287 -15.60588821 20.71616282 -15.609375 23.140625 C-15.62591125 24.02280701 -15.64244751 24.90498901 -15.65948486 25.81390381 C-15.70799194 28.6260065 -15.72934155 31.43756832 -15.75 34.25 C-15.77815746 36.15888142 -15.80808457 38.06773761 -15.83984375 39.9765625 C-15.91375154 44.65099714 -15.96330955 49.32513106 -16 54 C-19.3 54 -22.6 54 -26 54 C-26 36.51 -26 19.02 -26 1 C-22.7 1 -19.4 1 -16 1 C-15.67 1.99 -15.34 2.98 -15 4 C-14.195625 3.34 -13.39125 2.68 -12.5625 2 C-8.52905432 -0.67942846 -4.69815377 -0.7085187 0 0 Z " fill="#6E6E6E" transform="translate(823,979)"/>
<path d="M0 0 C5.67290641 2.63384941 9.09496079 6.543439 11.578125 12.27734375 C11.81863403 14.31488037 11.81863403 14.31488037 11.80517578 16.49511719 C11.80502472 17.31566589 11.80487366 18.1362146 11.80471802 18.98162842 C11.79439545 19.85780823 11.78407288 20.73398804 11.7734375 21.63671875 C11.7706076 22.5410968 11.76777771 23.44547485 11.76486206 24.3772583 C11.75368282 27.2607557 11.72858233 30.1439405 11.703125 33.02734375 C11.69309228 34.98437051 11.68396694 36.94140214 11.67578125 38.8984375 C11.65375085 43.69152637 11.61923644 48.48438209 11.578125 53.27734375 C8.278125 53.27734375 4.978125 53.27734375 1.578125 53.27734375 C1.578125 51.95734375 1.578125 50.63734375 1.578125 49.27734375 C0.670625 49.91671875 -0.236875 50.55609375 -1.171875 51.21484375 C-6.40012358 54.53277073 -11.32539846 54.87108755 -17.421875 54.27734375 C-21.6303228 52.68925024 -24.52057892 50.71591689 -27.421875 47.27734375 C-29.50237116 41.03585526 -29.4973617 33.72945342 -26.859375 27.71484375 C-22.00643324 22.86190199 -16.84739957 20.37421944 -9.96875 20.1796875 C-8.08929687 20.19708984 -8.08929687 20.19708984 -6.171875 20.21484375 C-4.27695312 20.22837891 -4.27695312 20.22837891 -2.34375 20.2421875 C-1.37953125 20.25378906 -0.4153125 20.26539063 0.578125 20.27734375 C0.475 19.01921875 0.371875 17.76109375 0.265625 16.46484375 C0.20761719 15.75714844 0.14960937 15.04945313 0.08984375 14.3203125 C-0.55098037 11.7619078 -1.29291984 10.8226303 -3.421875 9.27734375 C-5.59682581 8.80426919 -5.59682581 8.80426919 -7.921875 8.90234375 C-9.08203125 8.89074219 -9.08203125 8.89074219 -10.265625 8.87890625 C-12.9384312 9.37279435 -13.73407701 10.18722181 -15.421875 12.27734375 C-16.411875 13.76234375 -16.411875 13.76234375 -17.421875 15.27734375 C-19.5859375 15.5703125 -19.5859375 15.5703125 -22.046875 15.46484375 C-23.27277344 15.42423828 -23.27277344 15.42423828 -24.5234375 15.3828125 C-25.14992188 15.34800781 -25.77640625 15.31320312 -26.421875 15.27734375 C-27.0234375 13.46484375 -27.0234375 13.46484375 -27.421875 11.27734375 C-21.61829034 0.5630336 -11.70324965 -3.49209869 0 0 Z " fill="#707070" transform="translate(900.421875,979.72265625)"/>
<path d="M0 0 C5.67290641 2.63384941 9.09496079 6.543439 11.578125 12.27734375 C11.81863403 14.31488037 11.81863403 14.31488037 11.80517578 16.49511719 C11.80502472 17.31566589 11.80487366 18.1362146 11.80471802 18.98162842 C11.79439545 19.85780823 11.78407288 20.73398804 11.7734375 21.63671875 C11.7706076 22.5410968 11.76777771 23.44547485 11.76486206 24.3772583 C11.75368282 27.2607557 11.72858233 30.1439405 11.703125 33.02734375 C11.69309228 34.98437051 11.68396694 36.94140214 11.67578125 38.8984375 C11.65375085 43.69152637 11.61923644 48.48438209 11.578125 53.27734375 C8.278125 53.27734375 4.978125 53.27734375 1.578125 53.27734375 C1.578125 51.95734375 1.578125 50.63734375 1.578125 49.27734375 C0.670625 49.91671875 -0.236875 50.55609375 -1.171875 51.21484375 C-6.40012358 54.53277073 -11.32539846 54.87108755 -17.421875 54.27734375 C-21.6303228 52.68925024 -24.52057892 50.71591689 -27.421875 47.27734375 C-29.50237116 41.03585526 -29.4973617 33.72945342 -26.859375 27.71484375 C-22.00643324 22.86190199 -16.84739957 20.37421944 -9.96875 20.1796875 C-8.08929687 20.19708984 -8.08929687 20.19708984 -6.171875 20.21484375 C-4.27695312 20.22837891 -4.27695312 20.22837891 -2.34375 20.2421875 C-1.37953125 20.25378906 -0.4153125 20.26539063 0.578125 20.27734375 C0.475 19.01921875 0.371875 17.76109375 0.265625 16.46484375 C0.20761719 15.75714844 0.14960937 15.04945313 0.08984375 14.3203125 C-0.55098037 11.7619078 -1.29291984 10.8226303 -3.421875 9.27734375 C-5.59682581 8.80426919 -5.59682581 8.80426919 -7.921875 8.90234375 C-9.08203125 8.89074219 -9.08203125 8.89074219 -10.265625 8.87890625 C-12.9384312 9.37279435 -13.73407701 10.18722181 -15.421875 12.27734375 C-16.411875 13.76234375 -16.411875 13.76234375 -17.421875 15.27734375 C-19.5859375 15.5703125 -19.5859375 15.5703125 -22.046875 15.46484375 C-23.27277344 15.42423828 -23.27277344 15.42423828 -24.5234375 15.3828125 C-25.14992188 15.34800781 -25.77640625 15.31320312 -26.421875 15.27734375 C-27.0234375 13.46484375 -27.0234375 13.46484375 -27.421875 11.27734375 C-21.61829034 0.5630336 -11.70324965 -3.49209869 0 0 Z " fill="#707070" transform="translate(649.421875,979.72265625)"/>
<path d="M0 0 C4.29976703 2.49492655 7.42185411 6.09414191 9.6875 10.5 C10.7233064 14.94714484 10.82211953 19.25765234 10.8125 23.8125 C10.81636719 25.66294922 10.81636719 25.66294922 10.8203125 27.55078125 C10.6875 30.5 10.6875 30.5 9.6875 31.5 C7.54191173 31.58775605 5.39345579 31.60695219 3.24609375 31.59765625 C1.94091797 31.59443359 0.63574219 31.59121094 -0.70898438 31.58789062 C-2.0976569 31.57953401 -3.48632877 31.57106905 -4.875 31.5625 C-6.26757656 31.55748666 -7.66015481 31.55292347 -9.05273438 31.54882812 C-12.4726987 31.53699434 -15.89257844 31.5205088 -19.3125 31.5 C-19.01827263 32.95836884 -18.7159468 34.41510558 -18.41015625 35.87109375 C-18.24265869 36.68247803 -18.07516113 37.4938623 -17.90258789 38.32983398 C-17.42568827 40.61737407 -17.42568827 40.61737407 -15.75 42.5625 C-11.91008103 44.03939191 -8.34578587 44.42578982 -4.3125 43.5 C-2.03373237 41.68853725 -0.91986528 39.98882366 0.6875 37.5 C3.6575 38.16 6.6275 38.82 9.6875 39.5 C8.10741401 45.67669976 5.25850945 48.68148112 0.125 52.3125 C-6.28355711 54.52636518 -13.43782505 54.69495136 -19.75 52 C-24.67592092 49.1470708 -26.84937042 44.42625915 -29.3125 39.5 C-29.64005738 34.96478149 -29.6372475 30.42056663 -29.6875 25.875 C-29.72488281 24.61558594 -29.76226563 23.35617187 -29.80078125 22.05859375 C-29.87081452 14.64284884 -29.53402401 9.08673631 -24.3125 3.5 C-17.23624873 -2.01947599 -8.44948576 -3.70276693 0 0 Z " fill="#6F6F6F" transform="translate(1576.3125,980.5)"/>
<path d="M0 0 C5.53520824 3.21042078 8.76685437 6.88018491 11.125 12.8125 C11.47330888 16.11787293 11.40920293 19.36879237 11.3125 22.6875 C11.250625 25.69875 11.18875 28.71 11.125 31.8125 C1.555 31.8125 -8.015 31.8125 -17.875 31.8125 C-17.215 35.1125 -16.555 38.4125 -15.875 41.8125 C-11.8733959 44.48023607 -8.58068852 44.52728813 -3.875 43.8125 C-1.37339182 41.93629387 -0.25554348 40.57358697 1.125 37.8125 C4.095 38.4725 7.065 39.1325 10.125 39.8125 C9.70688695 44.55111454 7.66032346 47.74443875 4.125 50.8125 C-1.61334183 54.29974628 -8.3385303 54.80345168 -14.875 53.8125 C-21.36065936 51.43808912 -24.9150571 46.8848292 -27.875 40.8125 C-29.47270651 36.01938047 -29.14270255 31.14530137 -29.1875 26.125 C-29.21650391 25.06087891 -29.24550781 23.99675781 -29.27539062 22.90039062 C-29.33362804 15.64759242 -28.59563887 9.71255258 -23.42700195 4.29467773 C-16.65232852 -1.62956477 -8.58375172 -3.32030836 0 0 Z " fill="#6F6F6F" transform="translate(1019.875,980.1875)"/>
<path d="M0 0 C4.97688639 2.87598763 8.39898311 7.06766155 10.625 12.375 C10.85205078 14.57324219 10.85205078 14.57324219 10.8203125 16.921875 C10.81531738 17.68338867 10.81032227 18.44490234 10.80517578 19.22949219 C10.78696777 20.18500977 10.76875977 21.14052734 10.75 22.125 C10.70875 25.1775 10.6675 28.23 10.625 31.375 C0.725 31.375 -9.175 31.375 -19.375 31.375 C-17.65013543 40.98537529 -17.65013543 40.98537529 -13.375 43.375 C-10.33046509 43.85719153 -7.42208913 43.83784898 -4.375 43.375 C-1.87339182 41.49879387 -0.75554348 40.13608697 0.625 37.375 C3.595 38.035 6.565 38.695 9.625 39.375 C9.1166752 43.82284203 7.78930777 46.21069223 4.625 49.375 C-1.5118272 53.92956091 -7.95077295 54.21389571 -15.375 53.375 C-20.70225542 51.69790107 -24.47016077 48.09973851 -27.375 43.375 C-29.62675446 37.41357548 -29.70885894 31.76401751 -29.6875 25.4375 C-29.70361328 24.48681641 -29.71972656 23.53613281 -29.73632812 22.55664062 C-29.74114422 15.56848989 -29.14121511 9.62641817 -24.4375 4.09765625 C-23.4165625 3.27587891 -23.4165625 3.27587891 -22.375 2.4375 C-21.694375 1.87160156 -21.01375 1.30570313 -20.3125 0.72265625 C-14.65957781 -3.20931584 -6.089224 -2.79524378 0 0 Z " fill="#6E6E6E" transform="translate(1254.375,980.625)"/>
<path d="M0 0 C3.8792249 2.64492607 6.87947927 6.15348979 8.9765625 10.34765625 C9.04690019 12.2214523 9.0608647 14.09766727 9.0390625 15.97265625 C9.03003906 16.97554687 9.02101563 17.9784375 9.01171875 19.01171875 C9.00011719 19.78257812 8.98851562 20.5534375 8.9765625 21.34765625 C7.49749358 21.37454841 6.01828767 21.39400246 4.5390625 21.41015625 C3.30349609 21.42755859 3.30349609 21.42755859 2.04296875 21.4453125 C-0.0234375 21.34765625 -0.0234375 21.34765625 -1.0234375 20.34765625 C-1.178125 18.46046875 -1.178125 18.46046875 -1.3359375 16.53515625 C-1.68500155 13.39357976 -1.91778607 12.48057257 -3.9609375 9.91015625 C-8.33485034 6.59658591 -12.68495784 6.61853893 -18.0234375 7.34765625 C-21.2974346 9.20407374 -21.2974346 9.20407374 -23.0234375 12.34765625 C-23.81673209 16.71077652 -23.54840655 18.57728746 -21.04296875 22.25390625 C-17.70483718 26.06967852 -13.54612903 28.12726638 -9.0859375 30.41015625 C7.01860054 38.77289011 7.01860054 38.77289011 9.9765625 47.34765625 C11.05926358 54.10901401 9.99660563 59.77667055 5.9765625 65.34765625 C1.7759512 69.98484794 -2.99416362 72.02443348 -9.171875 72.68359375 C-17.13151123 72.77995738 -22.93230699 72.29523832 -28.8046875 66.62890625 C-33.92012007 60.93436811 -34.13209737 56.84518722 -34.0234375 49.34765625 C-30.7234375 49.34765625 -27.4234375 49.34765625 -24.0234375 49.34765625 C-23.8996875 51.20390625 -23.8996875 51.20390625 -23.7734375 53.09765625 C-23.38989006 56.23829836 -23.12452501 57.22048164 -21.0859375 59.78515625 C-17.9198031 62.18374292 -16.07626641 62.50601805 -12.1484375 62.53515625 C-11.28476563 62.54933594 -10.42109375 62.56351563 -9.53125 62.578125 C-6.86621389 62.33320735 -5.28281103 61.75348867 -3.0234375 60.34765625 C-0.47676793 56.90965233 -0.51391889 53.4965935 -1.0234375 49.34765625 C-4.79102136 44.81042977 -9.26444823 42.27899861 -14.3359375 39.47265625 C-31.40057064 29.69161945 -31.40057064 29.69161945 -34.0234375 20.34765625 C-34.80988261 14.67401655 -33.80162664 10.4250364 -31.0234375 5.34765625 C-23.25302282 -4.14951724 -10.74037035 -5.44829696 0 0 Z " fill="#6E6E6E" transform="translate(1154.0234375,961.65234375)"/>
<path d="M0 0 C4.38375055 2.51324045 7.82843549 6.69202724 10.078125 11.19140625 C10.14846269 13.0652023 10.1624272 14.94141727 10.140625 16.81640625 C10.13160156 17.81929687 10.12257813 18.8221875 10.11328125 19.85546875 C10.10167969 20.62632812 10.09007812 21.3971875 10.078125 22.19140625 C8.59905608 22.21829841 7.11985017 22.23775246 5.640625 22.25390625 C4.40505859 22.27130859 4.40505859 22.27130859 3.14453125 22.2890625 C1.078125 22.19140625 1.078125 22.19140625 0.078125 21.19140625 C-0.18933735 19.56918897 -0.43606064 17.94352536 -0.671875 16.31640625 C-1.45615893 12.28127234 -1.45615893 12.28127234 -3.921875 9.06640625 C-8.34370511 7.7767058 -12.36405552 7.4230668 -16.921875 8.19140625 C-20.29955949 9.90196249 -20.29955949 9.90196249 -21.921875 13.19140625 C-22.47183446 16.51560568 -22.16954195 19.061099 -20.921875 22.19140625 C-16.63930624 27.27695665 -9.73349496 30.01682094 -4.01171875 33.22851562 C3.27550735 37.36215906 8.66396252 40.81284234 11.078125 49.19140625 C12.01498681 55.67917425 10.88275175 60.82980917 7.078125 66.19140625 C3.14838204 70.43337537 -1.17739015 72.88567348 -6.9375 73.52734375 C-14.7278371 73.62142995 -21.54460169 73.21376551 -27.51171875 67.73046875 C-32.67566428 61.83309327 -33.14451195 57.76106238 -32.921875 50.19140625 C-29.621875 50.19140625 -26.321875 50.19140625 -22.921875 50.19140625 C-22.695 51.59390625 -22.468125 52.99640625 -22.234375 54.44140625 C-21.5044529 57.57316662 -20.95816732 59.14340673 -18.984375 61.75390625 C-14.42939215 63.89195942 -9.86901692 64.00978591 -4.921875 63.19140625 C-1.82645023 61.37025583 -1.07896848 60.66268669 0.078125 57.19140625 C0.42742666 53.41894837 0.60323257 51.05587856 -1.390625 47.7734375 C-4.75837844 44.33812111 -8.48433153 42.43934696 -12.734375 40.25390625 C-21.24740996 35.85351637 -28.65516368 31.75177579 -32.265625 22.4921875 C-33.63074316 17.70614825 -33.48205778 13.83900266 -31.859375 9.06640625 C-24.36657063 -2.05194863 -12.37949876 -4.60891411 0 0 Z " fill="#6E6E6E" transform="translate(774.921875,960.80859375)"/>
<path d="M0 0 C4.1796989 2.8497947 7.11864324 5.98092971 8.75 10.875 C8.83589303 12.27155459 8.86772715 13.67185777 8.86352539 15.07104492 C8.86344986 15.91168991 8.86337433 16.7523349 8.86329651 17.61845398 C8.85813522 18.52166885 8.85297394 19.42488373 8.84765625 20.35546875 C8.8462413 21.28345779 8.84482635 22.21144684 8.84336853 23.16755676 C8.83776937 26.13257058 8.82521704 29.09750899 8.8125 32.0625 C8.80748489 34.07226453 8.802922 36.08203025 8.79882812 38.09179688 C8.78780021 43.01956032 8.77053617 47.94726737 8.75 52.875 C5.45 52.875 2.15 52.875 -1.25 52.875 C-1.2593457 51.7197583 -1.26869141 50.5645166 -1.27832031 49.37426758 C-1.3182661 45.07814318 -1.38403746 40.78273144 -1.45751953 36.48706055 C-1.48570259 34.62973197 -1.5069304 32.77228405 -1.52099609 30.91479492 C-1.54246284 28.24075339 -1.58913069 25.56814265 -1.640625 22.89453125 C-1.64185364 22.06726028 -1.64308228 21.23998932 -1.64434814 20.38764954 C-1.74572157 16.37545192 -1.96458701 14.32912949 -4.14941406 10.8527832 C-6.54286851 8.59925293 -7.50723844 8.19447326 -10.75 8.25 C-11.5028125 8.23710938 -12.255625 8.22421875 -13.03125 8.2109375 C-16.43093655 9.22844932 -17.3736808 10.88953016 -19.25 13.875 C-19.84503725 16.88053763 -19.85483455 19.83734164 -19.859375 22.89453125 C-19.87591125 23.75310226 -19.89244751 24.61167328 -19.90948486 25.4962616 C-19.95790033 28.22674763 -19.97932106 30.956677 -20 33.6875 C-20.02816514 35.5436477 -20.05809334 37.39976954 -20.08984375 39.25585938 C-20.16365738 43.79552707 -20.21327128 48.33488693 -20.25 52.875 C-23.55 52.875 -26.85 52.875 -30.25 52.875 C-30.25 35.385 -30.25 17.895 -30.25 -0.125 C-26.95 -0.125 -23.65 -0.125 -20.25 -0.125 C-19.92 0.865 -19.59 1.855 -19.25 2.875 C-18.280625 2.215 -17.31125 1.555 -16.3125 0.875 C-10.88813552 -2.21051907 -5.79867364 -2.00723318 0 0 Z " fill="#6E6E6E" transform="translate(702.25,980.125)"/>
<path d="M0 0 C3.97282203 2.25905567 6.15635816 4.75021632 8.1875 8.8125 C8.27684406 10.23223273 8.30508978 11.65607791 8.30102539 13.07861328 C8.30094986 13.95937531 8.30087433 14.84013733 8.30079651 15.74758911 C8.29563522 16.69971283 8.29047394 17.65183655 8.28515625 18.6328125 C8.2837413 19.60660858 8.28232635 20.58040466 8.28086853 21.58370972 C8.27525973 24.70167073 8.26270573 27.8195606 8.25 30.9375 C8.24498613 33.04817605 8.24042303 35.15885322 8.23632812 37.26953125 C8.22528744 42.45054835 8.20801689 47.6315121 8.1875 52.8125 C4.8875 52.8125 1.5875 52.8125 -1.8125 52.8125 C-1.8218457 51.62172852 -1.83119141 50.43095703 -1.84082031 49.20410156 C-1.88071387 44.78314908 -1.94647073 40.36289297 -2.02001953 35.94238281 C-2.04823286 34.02971344 -2.06944561 32.1169274 -2.08349609 30.20410156 C-2.10492081 27.45316827 -2.1515674 24.70363825 -2.203125 21.953125 C-2.20435364 21.09881897 -2.20558228 20.24451294 -2.20684814 19.36431885 C-2.31326304 14.46156533 -2.31326304 14.46156533 -4.72558594 10.27661133 C-6.97314114 8.69979938 -8.09246411 8.24468743 -10.8125 8.25 C-11.8025 8.21712891 -11.8025 8.21712891 -12.8125 8.18359375 C-16.04576203 9.2003031 -17.018559 10.97644319 -18.8125 13.8125 C-19.40874804 16.81774094 -19.41733469 19.77492971 -19.421875 22.83203125 C-19.43841125 23.69060226 -19.45494751 24.54917328 -19.47198486 25.4337616 C-19.52040033 28.16424763 -19.54182106 30.894177 -19.5625 33.625 C-19.59066514 35.4811477 -19.62059334 37.33726954 -19.65234375 39.19335938 C-19.72615738 43.73302707 -19.77577128 48.27238693 -19.8125 52.8125 C-23.1125 52.8125 -26.4125 52.8125 -29.8125 52.8125 C-29.8125 35.3225 -29.8125 17.8325 -29.8125 -0.1875 C-26.5125 -0.1875 -23.2125 -0.1875 -19.8125 -0.1875 C-19.4825 0.8025 -19.1525 1.7925 -18.8125 2.8125 C-18.008125 2.1525 -17.20375 1.4925 -16.375 0.8125 C-11.11894121 -2.67087859 -5.76862126 -1.79678367 0 0 Z " fill="#6D6D6D" transform="translate(1305.8125,980.1875)"/>
<path d="M0 0 C3.62963199 2.15509399 5.68210102 4.51196467 7.5 8.375 C7.75 12.25 7.75 12.25 7.5 15.375 C4.53 15.375 1.56 15.375 -1.5 15.375 C-1.7475 14.42625 -1.995 13.4775 -2.25 12.5 C-3.19986634 9.39249484 -3.19986634 9.39249484 -5.1875 8 C-8.39520708 7.13305214 -11.19420616 7.13457863 -14.5 7.375 C-15.49 8.035 -16.48 8.695 -17.5 9.375 C-17.75015873 12.95857241 -17.75015873 12.95857241 -17.5 16.375 C-16.62601563 16.81199219 -16.62601563 16.81199219 -15.734375 17.2578125 C-13.9906222 18.1296889 -12.24857947 19.00498984 -10.5078125 19.8828125 C-8.45229784 20.90256133 -6.38372375 21.89629282 -4.3046875 22.8671875 C-2.73074219 23.61355469 -2.73074219 23.61355469 -1.125 24.375 C-0.14789062 24.82875 0.82921875 25.2825 1.8359375 25.75 C4.90448807 27.62172586 6.56637208 29.35060762 8.5 32.375 C9.42815998 36.98656653 8.83908764 41.29789809 7.4375 45.75 C4.19970804 50.13668588 -0.14904771 52.32267914 -5.5 53.375 C-12.68994343 54.05603501 -18.53106927 53.68276605 -24.5 49.375 C-28.36492278 45.70827838 -29.19533033 42.655941 -29.5 37.375 C-28.5 36.375 -28.5 36.375 -26.43359375 36.27734375 C-25.19802734 36.29474609 -25.19802734 36.29474609 -23.9375 36.3125 C-23.11121094 36.32152344 -22.28492188 36.33054687 -21.43359375 36.33984375 C-20.79550781 36.35144531 -20.15742187 36.36304688 -19.5 36.375 C-19.2525 37.32375 -19.005 38.2725 -18.75 39.25 C-17.80013366 42.35750516 -17.80013366 42.35750516 -15.8125 43.75 C-11.64791848 44.87556257 -8.02254041 45.07771096 -4.0625 43.25 C-1.8739262 40.62371143 -2.20538101 38.68946363 -2.5 35.375 C-7.52549771 32.76601821 -12.47362036 30.34022853 -17.8125 28.4375 C-23.16677527 26.37492541 -25.91280379 23.54939241 -28.5 18.375 C-29.0341019 13.5067925 -29.00387512 9.50871903 -27 5 C-19.89272749 -2.46263613 -9.52449114 -4.22915838 0 0 Z " fill="#6E6E6E" transform="translate(1529.5,980.625)"/>
<path d="M0 0 C3.77637307 3.39267191 5.28090603 5.64171773 5.63110352 10.73266602 C5.65718368 12.57289477 5.65492631 14.41367664 5.62890625 16.25390625 C5.63131821 17.23238022 5.63373016 18.21085419 5.63621521 19.21897888 C5.63523863 21.28071153 5.62189024 23.34247102 5.59692383 25.40405273 C5.56256994 28.5560826 5.57628663 31.70531417 5.59570312 34.85742188 C5.58880548 36.86459524 5.57913385 38.87176139 5.56640625 40.87890625 C5.57136612 41.81859756 5.57632599 42.75828888 5.58143616 43.72645569 C5.50463947 47.9996966 5.38947803 50.37409761 3.08959961 54.07006836 C0.38043627 56.57222237 -0.59272215 56.95389307 -4.3125 57.375 C-8 57 -8 57 -10.875 54.625 C-13.5006468 51.38155395 -14.12405587 49.89108605 -14.19287109 45.82910156 C-14.20893402 44.96770569 -14.22499695 44.10630981 -14.24154663 43.21881104 C-14.28604546 39.2725097 -14.32707333 35.32637654 -14.35009766 31.37988281 C-14.36664315 29.30034178 -14.3939145 27.22085728 -14.43212891 25.14160156 C-14.4869893 22.14097637 -14.50878701 19.14168467 -14.5234375 16.140625 C-14.54610687 15.21542053 -14.56877625 14.29021606 -14.59213257 13.3369751 C-14.57774416 8.92456413 -14.42894168 5.93751219 -11.59228516 2.42871094 C-7.4707106 -1.43279063 -5.49497285 -1.397027 0 0 Z " fill="#FCFCFC" transform="translate(1129,798)"/>
<path d="M0 0 C3.46679688 0.04882812 3.46679688 0.04882812 6.93359375 0.09765625 C6.93359375 4.71765625 6.93359375 9.33765625 6.93359375 14.09765625 C10.56359375 14.09765625 14.19359375 14.09765625 17.93359375 14.09765625 C17.93359375 16.73765625 17.93359375 19.37765625 17.93359375 22.09765625 C14.30359375 22.09765625 10.67359375 22.09765625 6.93359375 22.09765625 C7.02717074 26.60038328 7.133273 31.10257525 7.25097656 35.60473633 C7.28925173 37.13622964 7.32410724 38.6678124 7.35546875 40.19946289 C7.40115182 42.40152955 7.45913912 44.60298121 7.51953125 46.8046875 C7.53108246 47.48916458 7.54263367 48.17364166 7.55453491 48.87886047 C7.66633119 52.48226462 7.87753928 54.01357455 9.93359375 57.09765625 C13.50128927 57.83372124 13.50128927 57.83372124 16.93359375 58.09765625 C16.93359375 61.06765625 16.93359375 64.03765625 16.93359375 67.09765625 C4.57093025 67.69159204 4.57093025 67.69159204 -0.06640625 64.09765625 C-2.8601918 58.81032653 -3.48498721 54.67547541 -3.359375 48.7578125 C-3.35513016 47.99085556 -3.35088531 47.22389862 -3.34651184 46.43370056 C-3.32985695 44.00881293 -3.29223178 41.58478827 -3.25390625 39.16015625 C-3.23884226 37.50587147 -3.22515687 35.85157352 -3.21289062 34.19726562 C-3.17999702 30.16373522 -3.12830874 26.13084152 -3.06640625 22.09765625 C-5.04640625 22.09765625 -7.02640625 22.09765625 -9.06640625 22.09765625 C-9.06640625 19.45765625 -9.06640625 16.81765625 -9.06640625 14.09765625 C-7.08640625 14.09765625 -5.10640625 14.09765625 -3.06640625 14.09765625 C-3.07800781 13.17082031 -3.08960938 12.24398437 -3.1015625 11.2890625 C-3.11058594 10.09152344 -3.11960937 8.89398437 -3.12890625 7.66015625 C-3.14050781 6.46519531 -3.15210938 5.27023437 -3.1640625 4.0390625 C-3.03472503 0.14341801 -3.03472503 0.14341801 0 0 Z " fill="#6E6E6E" transform="translate(965.06640625,965.90234375)"/>
<path d="M0 0 C0.66 0.33 1.32 0.66 2 1 C1.67 4.3 1.34 7.6 1 11 C-0.4025 11.12375 -1.805 11.2475 -3.25 11.375 C-6.61280989 11.67171852 -9.11961513 12.19052746 -12 14 C-14.53760827 17.80641241 -14.34977475 20.96860355 -14.4140625 25.38671875 C-14.43342865 26.20372757 -14.4527948 27.02073639 -14.4727478 27.86250305 C-14.53250352 30.47072934 -14.57891258 33.07899986 -14.625 35.6875 C-14.6631835 37.4563994 -14.70223546 39.22528028 -14.7421875 40.99414062 C-14.83820168 45.32927659 -14.92224735 49.6644996 -15 54 C-18.63 54 -22.26 54 -26 54 C-26 36.51 -26 19.02 -26 1 C-22.37 1 -18.74 1 -15 1 C-14.67 2.65 -14.34 4.3 -14 6 C-13.21625 5.195625 -12.4325 4.39125 -11.625 3.5625 C-7.64773944 -0.32006388 -5.49198776 -0.19614242 0 0 Z " fill="#737373" transform="translate(1068,979)"/>
<path d="M0 0 C3.3 0 6.6 0 10 0 C10 24.09 10 48.18 10 73 C6.7 73 3.4 73 0 73 C0 48.91 0 24.82 0 0 Z " fill="#6E6E6E" transform="translate(601,960)"/>
<path d="M0 0 C0.66 0.33 1.32 0.66 2 1 C1.67 4.63 1.34 8.26 1 12 C-1.0728125 11.9071875 -1.0728125 11.9071875 -3.1875 11.8125 C-7.29164249 11.81895305 -9.77666301 12.2650474 -13 15 C-15.54604547 18.70805206 -15.34681154 22.70986207 -15.4140625 27.046875 C-15.43342865 27.81807678 -15.4527948 28.58927856 -15.4727478 29.3838501 C-15.53237077 31.83912205 -15.57885914 34.29444133 -15.625 36.75 C-15.66319575 38.41798882 -15.70224841 40.08595826 -15.7421875 41.75390625 C-15.83805791 45.83577943 -15.92215235 49.91774493 -16 54 C-19.3 54 -22.6 54 -26 54 C-26 36.51 -26 19.02 -26 1 C-22.7 1 -19.4 1 -16 1 C-15.67 2.98 -15.34 4.96 -15 7 C-14.236875 6.030625 -13.47375 5.06125 -12.6875 4.0625 C-9.15363067 -0.42646915 -5.49939299 -0.19997793 0 0 Z " fill="#6E6E6E" transform="translate(949,979)"/>
<path d="M0 0 C0.99 0.33 1.98 0.66 3 1 C2.34 4.3 1.68 7.6 1 11 C-0.381875 11.061875 -1.76375 11.12375 -3.1875 11.1875 C-7.00415193 11.59020186 -7.90086178 11.91738481 -11 14.5 C-11.99 15.7375 -11.99 15.7375 -13 17 C-13.33 17.33 -13.66 17.66 -14 18 C-14.16003488 20.66426685 -14.25942889 23.30560428 -14.31640625 25.97265625 C-14.33718735 26.77029892 -14.35796844 27.56794159 -14.37937927 28.38975525 C-14.44496158 30.94724611 -14.50379967 33.5048428 -14.5625 36.0625 C-14.60567699 37.79232882 -14.64929101 39.52214679 -14.69335938 41.25195312 C-14.80065172 45.5011926 -14.90189426 49.7505389 -15 54 C-18.3 54 -21.6 54 -25 54 C-25 36.51 -25 19.02 -25 1 C-21.7 1 -18.4 1 -15 1 C-14.67 2.98 -14.34 4.96 -14 7 C-13.21625 6.030625 -12.4325 5.06125 -11.625 4.0625 C-8.10527045 -0.2908497 -5.5825397 -0.19587859 0 0 Z " fill="#6D6D6D" transform="translate(1623,979)"/>
<path d="M0 0 C1.93359375 0.33984375 1.93359375 0.33984375 4.30859375 1.83984375 C9.13407112 9.26365509 9.12733246 19.62461529 7.36328125 28.0703125 C6.17749142 31.89604495 5.15283772 34.79671785 1.93359375 37.33984375 C-3.06469963 38.06540247 -3.06469963 38.06540247 -6.06640625 37.33984375 C-10.98777982 32.83731049 -11.89502727 29.28294815 -12.26953125 22.8515625 C-12.45745413 7.52018726 -12.45745413 7.52018726 -7.70703125 1.6640625 C-5.31788238 -0.26432194 -2.97700414 -0.13655982 0 0 Z " fill="#FAFAFA" transform="translate(1347.06640625,987.66015625)"/>
<path d="M0 0 C2.50153022 0.05457884 3.77433312 0.18962098 5.7890625 1.703125 C11.67220043 8.51517945 10.68641953 17.01836807 10.1875 25.5 C9.25000694 30.26505095 8.10995721 34.39939097 4.1875 37.5 C-0.88273535 38.14383941 -0.88273535 38.14383941 -3.8125 37.5 C-7.01760489 34.45925946 -8.65818927 31.68419824 -8.97363281 27.21923828 C-9.01904827 24.354368 -9.04774994 21.49019984 -9.0625 18.625 C-9.083125 17.63113281 -9.10375 16.63726563 -9.125 15.61328125 C-9.17363817 6.53010257 -9.17363817 6.53010257 -5.8125 2.5 C-3.8125 0.5 -3.8125 0.5 0 0 Z " fill="#FCFCFC" transform="translate(1194.8125,987.5)"/>
<path d="M0 0 C2.866875 -0.103125 5.73375 -0.20625 8.6875 -0.3125 C10.02880981 -0.38078003 10.02880981 -0.38078003 11.3972168 -0.45043945 C15.81196775 -0.52717898 17.46425409 -0.43594331 21.01953125 2.45703125 C21.67308594 3.29621094 22.32664062 4.13539063 23 5 C23.33 5.33 23.66 5.66 24 6 C24.43686654 10.53669097 24.53148105 14.68528372 22.8125 18.9375 C19.53701989 22.66477047 17.01329549 23.92556595 12.01171875 24.29296875 C10.5699835 24.27601574 9.12847358 24.23733067 7.6875 24.1875 C5.150625 24.125625 2.61375 24.06375 0 24 C0 16.08 0 8.16 0 0 Z " fill="#FCFCFC" transform="translate(557,969)"/>
<path d="M0 0 C3.3 0 6.6 0 10 0 C10 17.49 10 34.98 10 53 C6.7 53 3.4 53 0 53 C0 35.51 0 18.02 0 0 Z " fill="#6D6D6D" transform="translate(1479,980)"/>
<path d="M0 0 C3.57512324 2.80212362 5.07942757 5.24758513 5.75 9.75 C5.18922496 13.67542527 3.80961051 15.76047605 1.3125 18.8125 C-1.89535018 21.16492347 -4.78399252 21.2809209 -8.6875 20.8125 C-11.75221302 19.16226991 -13.99528907 17.756424 -16.0625 14.9375 C-17.38351084 10.44606315 -17.17133625 7.71105304 -14.9375 3.5625 C-10.77715117 -1.52237079 -6.19222969 -2.73610149 0 0 Z " fill="#F5F5F5" transform="translate(320.6875,890.1875)"/>
<path d="M0 0 C2.80834404 0.72112994 4.67490316 1.9068304 6.36328125 4.2890625 C8.1881394 9.47738469 7.41464625 15.15949958 7.16015625 20.5546875 C0.89015625 20.5546875 -5.37984375 20.5546875 -11.83984375 20.5546875 C-12.50948661 6.35825893 -12.50948661 6.35825893 -9.90234375 2.6796875 C-6.35510907 0.21834099 -4.2579445 -0.35542108 0 0 Z " fill="#FBFBFB" transform="translate(1214.83984375,797.4453125)"/>
<path d="M0 0 C3.28079607 0.84836747 4.90003114 2.9118294 6.93359375 5.5 C9.06439066 9.76159382 7.97861692 15.90763702 7.93359375 20.5 C1.66359375 20.5 -4.60640625 20.5 -11.06640625 20.5 C-11.16953125 18.128125 -11.27265625 15.75625 -11.37890625 13.3125 C-11.42442627 12.57491455 -11.46994629 11.8373291 -11.5168457 11.07739258 C-11.59740736 7.22862454 -11.16002885 5.62166103 -8.796875 2.55078125 C-5.47383329 0.05493447 -3.99648372 -0.24175327 0 0 Z " fill="#FAFAFA" transform="translate(995.06640625,797.5)"/>
<path d="M0 0 C1.18851563 0.00902344 2.37703125 0.01804687 3.6015625 0.02734375 C4.51679687 0.03894531 5.43203125 0.05054688 6.375 0.0625 C7.26335027 9.45598151 7.26335027 9.45598151 5.35546875 12.90625 C2.4760452 15.63495992 -0.43202787 16.41043628 -4.25 16.625 C-7.28094466 16.4307742 -8.53821305 16.11541887 -11.1875 14.5 C-13.18831202 11.10731874 -13.17826548 8.93535839 -12.625 5.0625 C-8.78854972 0.20299631 -5.99623548 -0.05878662 0 0 Z " fill="#FCFCFC" transform="translate(894.625,1008.9375)"/>
<path d="M0 0 C1.18851563 0.00902344 2.37703125 0.01804687 3.6015625 0.02734375 C4.51679687 0.03894531 5.43203125 0.05054688 6.375 0.0625 C7.26335027 9.45598151 7.26335027 9.45598151 5.35546875 12.90625 C2.4760452 15.63495992 -0.43202787 16.41043628 -4.25 16.625 C-7.28094466 16.4307742 -8.53821305 16.11541887 -11.1875 14.5 C-13.18831202 11.10731874 -13.17826548 8.93535839 -12.625 5.0625 C-8.78854972 0.20299631 -5.99623548 -0.05878662 0 0 Z " fill="#FCFCFC" transform="translate(643.625,1008.9375)"/>
<path d="M0 0 C2.8100346 1.79363911 4.50940468 3.01880935 6 6 C6 8.97 6 11.94 6 15 C-0.6 15 -7.2 15 -14 15 C-14 5.82352941 -14 5.82352941 -10 1 C-6.79826746 -0.60086627 -3.47422941 -0.49917089 0 0 Z " fill="#FAFAFA" transform="translate(1015,988)"/>
<path d="M0 0 C2.69105198 2.17574416 4.45532928 3.91065856 6 7 C6 9.64 6 12.28 6 15 C-0.6 15 -7.2 15 -14 15 C-14 5.82352941 -14 5.82352941 -10 1 C-6.78305636 -0.60847182 -3.47862778 -0.61309149 0 0 Z " fill="#FAFAFA" transform="translate(1249,988)"/>
<path d="M0 0 C3 1.875 3 1.875 5 5 C5.40534963 8.44810396 5.2329094 11.50635903 5 15 C-1.27 15 -7.54 15 -14 15 C-14 6 -14 6 -12.125 3 C-8.46781052 -0.44206069 -4.87602847 -0.78314798 0 0 Z " fill="#FCFCFC" transform="translate(1571,988)"/>
<path d="M0 0 C2.7912125 1.98322993 3.82597224 3.12986121 4.5 6.5 C3.82597224 9.87013879 2.7912125 11.01677007 0 13 C-3.70758991 13.61793165 -5.2935202 13.50197249 -8.375 11.3125 C-10 9 -10 9 -10.5 6.5 C-9.33827182 0.69135908 -5.5534724 -0.92557873 0 0 Z " fill="#717171" transform="translate(1487,959)"/>
<path d="M0 0 C1.875 1.0625 1.875 1.0625 3 3 C3.63316583 8.90954774 3.63316583 8.90954774 1.875 11.9375 C-0.93512264 13.52990283 -2.82764724 13.45319325 -6 13 C-8.4375 11.4375 -8.4375 11.4375 -10 9 C-9.9375 5.375 -9.9375 5.375 -9 2 C-5.53076119 -0.31282587 -4.07794425 -0.42478586 0 0 Z " fill="#6F6F6F" transform="translate(1085,1019)"/>
<path d="M0 0 C2 2 2 2 2.375 5.4375 C2 9 2 9 0.4375 11 C-3.05142809 12.43135511 -5.39755972 11.933966 -9 11 C-11.31361802 7.52957297 -11.51020728 6.08165827 -11 2 C-7.81693261 -1.94700356 -4.59995823 -1.10739735 0 0 Z " fill="#6E6E6E" transform="translate(1642,1020)"/>
</svg>
